adventprofmm_reg_krn_test_reduction_1_comp.ufo
<glyph name="exclam" format="1">
  <advance width="99"/>
  <unicode hex="0021"/>
  <outline>
    <contour>
      <point x="19" y="610" type="curve" name="hr00"/>
      <point x="28" y="109" type="line"/>
      <point x="71" y="109" type="line"/>
      <point x="79" y="611" type="line" smooth="yes"/>
      <point x="79" y="633"/>
      <point x="69" y="644"/>
      <point x="49" y="644" type="curve" smooth="yes"/>
      <point x="29" y="644"/>
      <point x="19" y="633"/>
    </contour>
    <contour>
      <point x="49" y="61" type="curve" smooth="yes"/>
      <point x="32" y="61"/>
      <point x="19" y="47"/>
      <point x="19" y="31" type="curve" smooth="yes"/>
      <point x="19" y="14"/>
      <point x="32" y="0"/>
      <point x="49" y="0" type="curve" smooth="yes"/>
      <point x="66" y="0"/>
      <point x="79" y="14"/>
      <point x="79" y="31" type="curve" smooth="yes"/>
      <point x="79" y="47"/>
      <point x="66" y="61"/>
    </contour>
  </outline>
</glyph>
<glyph name="quotesingle" format="1">
  <advance width="94"/>
  <unicode hex="0027"/>
  <outline>
    <contour>
      <point x="16" y="638" type="curve" name="hr00"/>
      <point x="28" y="534" type="line"/>
      <point x="65" y="534" type="line"/>
      <point x="77" y="638" type="line"/>
      <point x="77" y="680"/>
      <point x="16" y="680"/>
    </contour>
  </outline>
</glyph>
<glyph name="hyphen" format="1">
  <advance width="328"/>
  <unicode hex="002D"/>
  <outline>
    <contour>
      <point x="308" y="375" type="line" name="hr00"/>
      <point x="18" y="375" type="line"/>
      <point x="18" y="323" type="line"/>
      <point x="308" y="323" type="line"/>
    </contour>
  </outline>
</glyph>
<glyph name="period" format="1">
  <advance width="95"/>
  <unicode hex="002E"/>
  <outline>
    <contour>
      <point x="47" y="52" type="curve" smooth="yes" name="hr00"/>
      <point x="31" y="52"/>
      <point x="17" y="39"/>
      <point x="17" y="22" type="curve" smooth="yes"/>
      <point x="17" y="5"/>
      <point x="31" y="-8"/>
      <point x="47" y="-8" type="curve" smooth="yes"/>
      <point x="64" y="-8"/>
      <point x="78" y="5"/>
      <point x="78" y="22" type="curve" smooth="yes"/>
      <point x="78" y="39"/>
      <point x="64" y="52"/>
    </contour>
  </outline>
</glyph>
<glyph name="slash" format="1">
  <advance width="371"/>
  <unicode hex="002F"/>
  <outline>
    <contour>
      <point x="358" y="741" type="line" name="hr00"/>
      <point x="303" y="741" type="line"/>
      <point x="13" y="-103" type="line"/>
      <point x="64" y="-103" type="line"/>
    </contour>
  </outline>
</glyph>
<glyph name="one" format="1">
  <advance width="177"/>
  <unicode hex="0031"/>
  <outline>
    <contour>
      <point x="-6" y="564" type="curve" name="hr00"/>
      <point x="6" y="528" type="line"/>
      <point x="36" y="532"/>
      <point x="86" y="557"/>
      <point x="108" y="575" type="curve"/>
      <point x="108" y="0" type="line"/>
      <point x="156" y="0" type="line"/>
      <point x="156" y="635" type="line"/>
      <point x="107" y="635" type="line"/>
      <point x="65" y="583"/>
      <point x="-6" y="564"/>
    </contour>
  </outline>
</glyph>
<glyph name="two" format="1">
  <advance width="343"/>
  <unicode hex="0032"/>
  <outline>
    <contour>
      <point x="23" y="535" type="curve" name="hr00"/>
      <point x="70" y="517" type="line"/>
      <point x="90" y="571"/>
      <point x="131" y="595"/>
      <point x="172" y="595" type="curve" smooth="yes"/>
      <point x="224" y="596"/>
      <point x="274" y="556"/>
      <point x="274" y="490" type="curve" smooth="yes"/>
      <point x="274" y="462"/>
      <point x="268" y="442"/>
      <point x="234" y="386" type="curve" smooth="yes"/>
      <point x="163" y="268"/>
      <point x="84" y="160"/>
      <point x="11" y="48" type="curve"/>
      <point x="11" y="0" type="line"/>
      <point x="328" y="0" type="line"/>
      <point x="328" y="48" type="line"/>
      <point x="70" y="48" type="line"/>
      <point x="139" y="151"/>
      <point x="208" y="255"/>
      <point x="277" y="358" type="curve"/>
      <point x="315" y="422"/>
      <point x="327" y="463"/>
      <point x="327" y="499" type="curve" smooth="yes"/>
      <point x="328" y="591"/>
      <point x="251" y="645"/>
      <point x="173" y="644" type="curve" smooth="yes"/>
      <point x="112" y="643"/>
      <point x="51" y="609"/>
    </contour>
  </outline>
</glyph>
<glyph name="three" format="1">
  <advance width="374"/>
  <unicode hex="0033"/>
  <outline>
    <contour>
      <point x="169" y="375" type="curve" name="hr00"/>
      <point x="167" y="375" type="line"/>
      <point x="312" y="590" type="line"/>
      <point x="312" y="635" type="line"/>
      <point x="49" y="635" type="line"/>
      <point x="49" y="583" type="line"/>
      <point x="250" y="583" type="line"/>
      <point x="75" y="323" type="line"/>
      <point x="175" y="323" type="line" smooth="yes"/>
      <point x="213" y="323"/>
      <point x="245" y="308"/>
      <point x="272" y="279" type="curve" smooth="yes"/>
      <point x="298" y="252"/>
      <point x="311" y="220"/>
      <point x="311" y="181" type="curve" smooth="yes"/>
      <point x="311" y="142"/>
      <point x="298" y="110"/>
      <point x="270" y="82" type="curve" smooth="yes"/>
      <point x="242" y="53"/>
      <point x="208" y="40"/>
      <point x="169" y="40" type="curve" smooth="yes"/>
      <point x="118" y="40"/>
      <point x="79" y="61"/>
      <point x="51" y="102" type="curve"/>
      <point x="9" y="75" type="line"/>
      <point x="44" y="22"/>
      <point x="104" y="-11"/>
      <point x="169" y="-11" type="curve" smooth="yes"/>
      <point x="223" y="-11"/>
      <point x="269" y="8"/>
      <point x="306" y="45" type="curve" smooth="yes"/>
      <point x="343" y="82"/>
      <point x="362" y="128"/>
      <point x="362" y="181" type="curve" smooth="yes"/>
      <point x="362" y="235"/>
      <point x="343" y="281"/>
      <point x="306" y="318" type="curve" smooth="yes"/>
      <point x="269" y="355"/>
      <point x="223" y="375"/>
    </contour>
  </outline>
</glyph>
<glyph name="four" format="1">
  <advance width="412"/>
  <unicode hex="0034"/>
  <outline>
    <contour>
      <point x="336" y="323" type="line" name="hr00"/>
      <point x="384" y="323" type="line"/>
      <point x="402" y="375" type="line"/>
      <point x="336" y="375" type="line"/>
      <point x="336" y="635" type="line"/>
      <point x="285" y="635" type="line"/>
      <point x="285" y="375" type="line"/>
      <point x="85" y="375" type="line"/>
      <point x="227" y="635" type="line"/>
      <point x="174" y="635" type="line"/>
      <point x="-2" y="323" type="line"/>
      <point x="285" y="323" type="line"/>
      <point x="285" y="0" type="line"/>
      <point x="336" y="0" type="line"/>
    </contour>
  </outline>
</glyph>
<glyph name="seven" format="1">
  <advance width="363"/>
  <unicode hex="0037"/>
  <outline>
    <contour>
      <point x="364" y="635" type="line" name="hr00"/>
      <point x="8" y="635" type="line"/>
      <point x="8" y="583" type="line"/>
      <point x="306" y="583" type="line"/>
      <point x="18" y="0" type="line"/>
      <point x="75" y="0" type="line"/>
      <point x="364" y="585" type="line"/>
    </contour>
  </outline>
</glyph>
<glyph name="nine" format="1">
  <advance width="404"/>
  <unicode hex="0039"/>
  <outline>
    <contour>
      <point x="197" y="643" type="curve" smooth="yes" name="hr00"/>
      <point x="143" y="643"/>
      <point x="98" y="624"/>
      <point x="61" y="587" type="curve" smooth="yes"/>
      <point x="24" y="550"/>
      <point x="5" y="504"/>
      <point x="5" y="450" type="curve" smooth="yes"/>
      <point x="5" y="397"/>
      <point x="24" y="351"/>
      <point x="61" y="314" type="curve" smooth="yes"/>
      <point x="98" y="277"/>
      <point x="144" y="258"/>
      <point x="200" y="258" type="curve" smooth="yes"/>
      <point x="255" y="258"/>
      <point x="302" y="279"/>
      <point x="340" y="320" type="curve"/>
      <point x="340" y="223" type="line" smooth="yes"/>
      <point x="340" y="165"/>
      <point x="324" y="123"/>
      <point x="290" y="93" type="curve" smooth="yes"/>
      <point x="257" y="64"/>
      <point x="218" y="49"/>
      <point x="172" y="49" type="curve" smooth="yes"/>
      <point x="137" y="49" type="line"/>
      <point x="137" y="-1" type="line"/>
      <point x="169" y="-1" type="line" smooth="yes"/>
      <point x="249" y="-1"/>
      <point x="312" y="31"/>
      <point x="344" y="76" type="curve" smooth="yes"/>
      <point x="375" y="119"/>
      <point x="390" y="166"/>
      <point x="390" y="216" type="curve" smooth="yes"/>
      <point x="390" y="450" type="line" smooth="yes"/>
      <point x="390" y="504"/>
      <point x="371" y="550"/>
      <point x="334" y="587" type="curve" smooth="yes"/>
      <point x="297" y="624"/>
      <point x="250" y="643"/>
    </contour>
    <contour>
      <point x="197" y="593" type="curve" smooth="yes"/>
      <point x="276" y="593"/>
      <point x="340" y="529"/>
      <point x="340" y="450" type="curve" smooth="yes"/>
      <point x="340" y="372"/>
      <point x="276" y="308"/>
      <point x="197" y="308" type="curve" smooth="yes"/>
      <point x="118" y="308"/>
      <point x="55" y="372"/>
      <point x="55" y="450" type="curve" smooth="yes"/>
      <point x="55" y="529"/>
      <point x="118" y="593"/>
    </contour>
  </outline>
</glyph>
<glyph name="colon" format="1">
  <advance width="99"/>
  <unicode hex="003A"/>
  <outline>
    <contour>
      <point x="79" y="130" type="curve" smooth="yes" name="hr00"/>
      <point x="79" y="147"/>
      <point x="65" y="160"/>
      <point x="49" y="160" type="curve" smooth="yes"/>
      <point x="32" y="160"/>
      <point x="18" y="147"/>
      <point x="18" y="130" type="curve" smooth="yes"/>
      <point x="18" y="113"/>
      <point x="32" y="100"/>
      <point x="49" y="100" type="curve" smooth="yes"/>
      <point x="65" y="100"/>
      <point x="79" y="113"/>
    </contour>
    <contour>
      <point x="79" y="349" type="curve" smooth="yes"/>
      <point x="79" y="366"/>
      <point x="65" y="379"/>
      <point x="49" y="379" type="curve" smooth="yes"/>
      <point x="32" y="379"/>
      <point x="18" y="366"/>
      <point x="18" y="349" type="curve" smooth="yes"/>
      <point x="18" y="332"/>
      <point x="32" y="319"/>
      <point x="49" y="319" type="curve" smooth="yes"/>
      <point x="65" y="319"/>
      <point x="79" y="332"/>
    </contour>
  </outline>
</glyph>
<glyph name="D" format="1">
  <advance width="416"/>
  <unicode hex="0044"/>
  <outline>
    <contour>
      <point x="191" y="635" type="curve" name="hr00"/>
      <point x="20" y="635" type="line"/>
      <point x="20" y="0" type="line"/>
      <point x="209" y="0" type="line" smooth="yes"/>
      <point x="337" y="0"/>
      <point x="401" y="61"/>
      <point x="401" y="181" type="curve" smooth="yes"/>
      <point x="401" y="430" type="line" smooth="yes"/>
      <point x="401" y="554"/>
      <point x="327" y="635"/>
    </contour>
    <contour>
      <point x="194" y="45" type="curve"/>
      <point x="71" y="45" type="line"/>
      <point x="71" y="589" type="line"/>
      <point x="200" y="589" type="line" smooth="yes"/>
      <point x="306" y="589"/>
      <point x="350" y="522"/>
      <point x="350" y="444" type="curve" smooth="yes"/>
      <point x="350" y="172" type="line" smooth="yes"/>
      <point x="350" y="88"/>
      <point x="298" y="45"/>
    </contour>
  </outline>
</glyph>
<glyph name="E" format="1">
  <advance width="335"/>
  <unicode hex="0045"/>
  <outline>
    <contour>
      <point x="321" y="45" type="line" name="hr00"/>
      <point x="71" y="45" type="line"/>
      <point x="71" y="324" type="line"/>
      <point x="227" y="324" type="line"/>
      <point x="244" y="374" type="line"/>
      <point x="71" y="374" type="line"/>
      <point x="71" y="587" type="line"/>
      <point x="323" y="587" type="line"/>
      <point x="323" y="635" type="line"/>
      <point x="20" y="635" type="line"/>
      <point x="20" y="0" type="line"/>
      <point x="321" y="0" type="line"/>
    </contour>
  </outline>
</glyph>
<glyph name="F" format="1">
  <advance width="321"/>
  <unicode hex="0046"/>
  <outline>
    <contour>
      <point x="20" y="0" type="line" name="hr00"/>
      <point x="71" y="0" type="line"/>
      <point x="71" y="324" type="line"/>
      <point x="224" y="324" type="line"/>
      <point x="245" y="374" type="line"/>
      <point x="71" y="374" type="line"/>
      <point x="71" y="586" type="line"/>
      <point x="323" y="586" type="line"/>
      <point x="323" y="635" type="line"/>
      <point x="20" y="635" type="line"/>
    </contour>
  </outline>
</glyph>
<glyph name="H" format="1">
  <advance width="431"/>
  <unicode hex="0048"/>
  <outline>
    <contour>
      <point x="71" y="635" type="line" name="hr00"/>
      <point x="20" y="635" type="line"/>
      <point x="20" y="0" type="line"/>
      <point x="71" y="0" type="line"/>
      <point x="71" y="324" type="line"/>
      <point x="359" y="324" type="line"/>
      <point x="359" y="0" type="line"/>
      <point x="410" y="0" type="line"/>
      <point x="410" y="635" type="line"/>
      <point x="359" y="635" type="line"/>
      <point x="359" y="374" type="line"/>
      <point x="71" y="374" type="line"/>
    </contour>
  </outline>
</glyph>
<glyph name="S" format="1">
  <advance width="451"/>
  <unicode hex="0053"/>
  <outline>
    <contour>
      <point x="366" y="562" type="curve" name="hr00"/>
      <point x="382" y="609" type="line"/>
      <point x="340" y="632"/>
      <point x="286" y="644"/>
      <point x="234" y="643" type="curve" smooth="yes"/>
      <point x="184" y="643"/>
      <point x="135" y="630"/>
      <point x="99" y="604" type="curve" smooth="yes"/>
      <point x="65" y="581"/>
      <point x="43" y="545"/>
      <point x="40" y="497" type="curve"/>
      <point x="36" y="407"/>
      <point x="103" y="365"/>
      <point x="179" y="332" type="curve" smooth="yes"/>
      <point x="209" y="319"/>
      <point x="240" y="308"/>
      <point x="269" y="295" type="curve" smooth="yes"/>
      <point x="334" y="266"/>
      <point x="387" y="231"/>
      <point x="384" y="161" type="curve" smooth="yes"/>
      <point x="382" y="127"/>
      <point x="370" y="102"/>
      <point x="351" y="83" type="curve" smooth="yes"/>
      <point x="320" y="51"/>
      <point x="270" y="38"/>
      <point x="220" y="38" type="curve" smooth="yes"/>
      <point x="169" y="38"/>
      <point x="129" y="56"/>
      <point x="103" y="76" type="curve" smooth="yes"/>
      <point x="60" y="109"/>
      <point x="50" y="145"/>
      <point x="50" y="145" type="curve"/>
      <point x="9" y="120" type="line"/>
      <point x="9" y="120"/>
      <point x="25" y="70"/>
      <point x="78" y="32" type="curve" smooth="yes"/>
      <point x="111" y="8"/>
      <point x="158" y="-11"/>
      <point x="224" y="-11" type="curve" smooth="yes"/>
      <point x="282" y="-11"/>
      <point x="341" y="3"/>
      <point x="382" y="39" type="curve"/>
      <point x="415" y="66"/>
      <point x="436" y="107"/>
      <point x="438" y="163" type="curve" smooth="yes"/>
      <point x="442" y="256"/>
      <point x="372" y="303"/>
      <point x="293" y="339" type="curve" smooth="yes"/>
      <point x="261" y="354"/>
      <point x="228" y="366"/>
      <point x="197" y="379" type="curve" smooth="yes"/>
      <point x="137" y="406"/>
      <point x="90" y="436"/>
      <point x="93" y="492" type="curve" smooth="yes"/>
      <point x="94" y="526"/>
      <point x="111" y="551"/>
      <point x="135" y="568" type="curve" smooth="yes"/>
      <point x="161" y="586"/>
      <point x="197" y="594"/>
      <point x="235" y="594" type="curve" smooth="yes"/>
      <point x="280" y="595"/>
      <point x="328" y="583"/>
    </contour>
  </outline>
</glyph>
<glyph name="T" format="1">
  <advance width="345"/>
  <unicode hex="0054"/>
  <outline>
    <contour>
      <point x="354" y="635" type="line" name="hr00"/>
      <point x="-11" y="635" type="line"/>
      <point x="-11" y="589" type="line"/>
      <point x="144" y="589" type="line"/>
      <point x="144" y="0" type="line"/>
      <point x="194" y="0" type="line"/>
      <point x="194" y="589" type="line"/>
      <point x="354" y="589" type="line"/>
    </contour>
  </outline>
</glyph>
<glyph name="V" format="1">
  <advance width="430"/>
  <unicode hex="0056"/>
  <outline>
    <contour>
      <point x="249" y="0" type="line"/>
      <point x="430" y="635" type="line"/>
      <point x="376" y="635" type="line"/>
      <point x="214" y="63" type="line" name="hr01"/>
      <point x="52" y="635" type="line"/>
      <point x="-3" y="635" type="line"/>
      <point x="179" y="0" type="line"/>
    </contour>
  </outline>
</glyph>
<glyph name="bracketright" format="1">
  <advance width="180"/>
  <unicode hex="005D"/>
  <outline>
    <contour>
      <point x="159" y="741" type="line" name="hr00"/>
      <point x="13" y="741" type="line"/>
      <point x="13" y="700" type="line"/>
      <point x="108" y="691" type="line"/>
      <point x="108" y="-54" type="line"/>
      <point x="13" y="-63" type="line"/>
      <point x="13" y="-103" type="line"/>
      <point x="159" y="-103" type="line"/>
    </contour>
  </outline>
</glyph>
<glyph name="asciicircum" format="1">
  <advance width="380"/>
  <unicode hex="005E"/>
  <outline>
    <contour>
      <point x="318" y="700" type="line" name="hr00"/>
      <point x="202" y="815" type="line"/>
      <point x="82" y="699" type="line"/>
      <point x="117" y="664" type="line"/>
      <point x="202" y="746" type="line"/>
      <point x="283" y="666" type="line"/>
    </contour>
  </outline>
</glyph>
<glyph name="underscore" format="1">
  <advance width="325"/>
  <unicode hex="005F"/>
  <outline>
    <contour>
      <point x="308" y="0" type="line" name="hr00"/>
      <point x="18" y="0" type="line"/>
      <point x="18" y="-51" type="line"/>
      <point x="308" y="-51" type="line"/>
    </contour>
  </outline>
</glyph>
<glyph name="grave" format="1">
  <advance width="216"/>
  <unicode hex="0060"/>
  <outline>
    <contour>
      <point x="104" y="650" type="line" name="hr00"/>
      <point x="99" y="667"/>
      <point x="80" y="677"/>
      <point x="64" y="668" type="curve" smooth="yes"/>
      <point x="48" y="659"/>
      <point x="47" y="638"/>
      <point x="58" y="625" type="curve"/>
      <point x="106" y="553" type="line"/>
      <point x="139" y="553" type="line"/>
    </contour>
  </outline>
</glyph>
<glyph name="a" format="1">
  <advance width="372"/>
  <unicode hex="0061"/>
  <outline>
    <contour>
      <point x="306" y="317" type="curve" name="hr02"/>
      <point x="264" y="341"/>
      <point x="206" y="365"/>
      <point x="147" y="365" type="curve" smooth="yes"/>
      <point x="74" y="365"/>
      <point x="8" y="330"/>
      <point x="8" y="228" type="curve" smooth="yes"/>
      <point x="8" y="203"/>
      <point x="8" y="178"/>
      <point x="8" y="153" type="curve" smooth="yes"/>
      <point x="8" y="19"/>
      <point x="97" y="-13"/>
      <point x="214" y="-9" type="curve" smooth="yes"/>
      <point x="259" y="-8"/>
      <point x="357" y="0"/>
      <point x="357" y="0" type="curve" name="hr01"/>
      <point x="357" y="87"/>
      <point x="357" y="174"/>
      <point x="357" y="261" type="curve" smooth="yes"/>
      <point x="357" y="341"/>
      <point x="350" y="404"/>
      <point x="293" y="436" type="curve" smooth="yes"/>
      <point x="255" y="458"/>
      <point x="210" y="461"/>
      <point x="168" y="461" type="curve"/>
      <point x="166" y="422" type="line"/>
      <point x="200" y="422"/>
      <point x="231" y="419"/>
      <point x="254" y="408" type="curve" smooth="yes"/>
      <point x="287" y="393"/>
      <point x="306" y="367"/>
    </contour>
    <contour>
      <point x="306" y="275" type="curve"/>
      <point x="306" y="197"/>
      <point x="306" y="120"/>
      <point x="306" y="42" type="curve" smooth="yes" name="hr03"/>
      <point x="306" y="42"/>
      <point x="269" y="38"/>
      <point x="210" y="35" type="curve" smooth="yes" name="hr04"/>
      <point x="89" y="30"/>
      <point x="58" y="73"/>
      <point x="58" y="159" type="curve" smooth="yes"/>
      <point x="58" y="177"/>
      <point x="58" y="205"/>
      <point x="58" y="226" type="curve" smooth="yes"/>
      <point x="58" y="308"/>
      <point x="110" y="322"/>
      <point x="143" y="322" type="curve" smooth="yes"/>
      <point x="201" y="322"/>
      <point x="256" y="299"/>
    </contour>
  </outline>
</glyph>
<glyph name="c" format="1">
  <advance width="313"/>
  <unicode hex="0063"/>
  <outline>
    <contour>
      <point x="286" y="391" type="curve" name="hr00"/>
      <point x="300" y="433" type="line"/>
      <point x="248" y="457"/>
      <point x="187" y="469"/>
      <point x="135" y="458" type="curve" smooth="yes"/>
      <point x="94" y="449"/>
      <point x="59" y="427"/>
      <point x="35" y="387" type="curve" smooth="yes"/>
      <point x="18" y="358"/>
      <point x="12" y="329"/>
      <point x="10" y="289" type="curve"/>
      <point x="10" y="157" type="line" smooth="yes"/>
      <point x="10" y="68"/>
      <point x="50" y="21"/>
      <point x="112" y="1" type="curve" smooth="yes"/>
      <point x="166" y="-16"/>
      <point x="241" y="-12"/>
      <point x="302" y="5" type="curve"/>
      <point x="292" y="50" type="line"/>
      <point x="292" y="50"/>
      <point x="181" y="24"/>
      <point x="123" y="47" type="curve" smooth="yes"/>
      <point x="75" y="65"/>
      <point x="60" y="108"/>
      <point x="60" y="168" type="curve" smooth="yes"/>
      <point x="60" y="277" type="line" smooth="yes"/>
      <point x="60" y="310"/>
      <point x="66" y="337"/>
      <point x="77" y="358" type="curve" smooth="yes"/>
      <point x="92" y="387"/>
      <point x="115" y="405"/>
      <point x="143" y="412" type="curve" smooth="yes"/>
      <point x="182" y="422"/>
      <point x="243" y="411"/>
    </contour>
  </outline>
</glyph>
<glyph name="d" format="1">
  <advance width="381"/>
  <unicode hex="0064"/>
  <outline>
    <contour>
      <point x="360" y="0" type="curve" name="hr02"/>
      <point x="360" y="635" type="line"/>
      <point x="310" y="635" type="line"/>
      <point x="310" y="428" type="line"/>
      <point x="268" y="446"/>
      <point x="221" y="462"/>
      <point x="162" y="462" type="curve" smooth="yes"/>
      <point x="89" y="462"/>
      <point x="11" y="427"/>
      <point x="11" y="325" type="curve" smooth="yes"/>
      <point x="11" y="268"/>
      <point x="11" y="210"/>
      <point x="11" y="153" type="curve" smooth="yes"/>
      <point x="11" y="19"/>
      <point x="101" y="-13"/>
      <point x="218" y="-9" type="curve" smooth="yes" name="hr01"/>
      <point x="262" y="-8"/>
      <point x="360" y="0"/>
    </contour>
    <contour>
      <point x="310" y="384" type="curve"/>
      <point x="310" y="270"/>
      <point x="310" y="156"/>
      <point x="310" y="42" type="curve" smooth="yes"/>
      <point x="310" y="42"/>
      <point x="272" y="38"/>
      <point x="214" y="35" type="curve" smooth="yes" name="hr03"/>
      <point x="93" y="30"/>
      <point x="61" y="73"/>
      <point x="61" y="159" type="curve" smooth="yes"/>
      <point x="61" y="177"/>
      <point x="61" y="302"/>
      <point x="61" y="322" type="curve" smooth="yes"/>
      <point x="61" y="405"/>
      <point x="125" y="419"/>
      <point x="158" y="419" type="curve" smooth="yes"/>
      <point x="216" y="419"/>
      <point x="261" y="404"/>
    </contour>
  </outline>
</glyph>
<glyph name="i" format="1">
  <advance width="98"/>
  <unicode hex="0069"/>
  <outline>
    <contour>
      <point x="74" y="454" type="line"/>
      <point x="23" y="454" type="line"/>
      <point x="23" y="0" type="line"/>
      <point x="74" y="0" type="line"/>
    </contour>
    <contour>
      <point x="49" y="644" type="curve" smooth="yes" name="hr01"/>
      <point x="32" y="644"/>
      <point x="18" y="630"/>
      <point x="18" y="613" type="curve" smooth="yes"/>
      <point x="18" y="596"/>
      <point x="32" y="583"/>
      <point x="49" y="583" type="curve" smooth="yes"/>
      <point x="65" y="583"/>
      <point x="79" y="596"/>
      <point x="79" y="613" type="curve" smooth="yes"/>
      <point x="79" y="630"/>
      <point x="65" y="644"/>
    </contour>
  </outline>
</glyph>
<glyph name="m" format="1">
  <advance width="616"/>
  <unicode hex="006D"/>
  <outline>
    <contour>
      <point x="552" y="310" type="curve" name="hr00"/>
      <point x="552" y="0" type="line"/>
      <point x="600" y="0" type="line"/>
      <point x="600" y="312" type="line" smooth="yes"/>
      <point x="600" y="408"/>
      <point x="552" y="461"/>
      <point x="451" y="461" type="curve" smooth="yes"/>
      <point x="412" y="461"/>
      <point x="358" y="447"/>
      <point x="308" y="410" type="curve"/>
      <point x="284" y="443"/>
      <point x="243" y="461"/>
      <point x="185" y="461" type="curve" smooth="yes"/>
      <point x="140" y="461"/>
      <point x="105" y="446"/>
      <point x="68" y="422" type="curve"/>
      <point x="68" y="453" type="line"/>
      <point x="17" y="453" type="line"/>
      <point x="17" y="0" type="line"/>
      <point x="68" y="0" type="line"/>
      <point x="68" y="384" type="line"/>
      <point x="105" y="405"/>
      <point x="135" y="415"/>
      <point x="176" y="415" type="curve" smooth="yes"/>
      <point x="234" y="415"/>
      <point x="286" y="392"/>
      <point x="286" y="310" type="curve" smooth="yes"/>
      <point x="286" y="0" type="line"/>
      <point x="334" y="0" type="line"/>
      <point x="334" y="312" type="line" smooth="yes"/>
      <point x="334" y="337"/>
      <point x="331" y="360"/>
      <point x="324" y="379" type="curve"/>
      <point x="367" y="405"/>
      <point x="406" y="415"/>
      <point x="442" y="415" type="curve" smooth="yes"/>
      <point x="500" y="415"/>
      <point x="552" y="392"/>
    </contour>
  </outline>
</glyph>
<glyph name="o" format="1">
  <advance width="357"/>
  <unicode hex="006F"/>
  <outline>
    <contour>
      <point x="345" y="167" type="curve" name="hr00"/>
      <point x="345" y="286" type="line" smooth="yes"/>
      <point x="345" y="396"/>
      <point x="287" y="464"/>
      <point x="179" y="464" type="curve" smooth="yes"/>
      <point x="71" y="464"/>
      <point x="10" y="402"/>
      <point x="10" y="286" type="curve" smooth="yes"/>
      <point x="10" y="167" type="line" smooth="yes"/>
      <point x="10" y="68"/>
      <point x="68" y="-9"/>
      <point x="181" y="-9" type="curve" smooth="yes"/>
      <point x="293" y="-9"/>
      <point x="345" y="65"/>
    </contour>
    <contour>
      <point x="295" y="286" type="curve"/>
      <point x="295" y="158" type="line" smooth="yes"/>
      <point x="295" y="84"/>
      <point x="256" y="36"/>
      <point x="181" y="36" type="curve" smooth="yes"/>
      <point x="107" y="36"/>
      <point x="61" y="85"/>
      <point x="61" y="158" type="curve" smooth="yes"/>
      <point x="61" y="286" type="line" smooth="yes"/>
      <point x="61" y="374"/>
      <point x="101" y="418"/>
      <point x="181" y="418" type="curve" smooth="yes"/>
      <point x="259" y="418"/>
      <point x="295" y="374"/>
    </contour>
  </outline>
</glyph>
<glyph name="t" format="1">
  <advance width="185"/>
  <unicode hex="0074"/>
  <outline>
    <contour>
      <point x="69" y="120" type="curve" name="hr00"/>
      <point x="69" y="406" type="line"/>
      <point x="156" y="406" type="line"/>
      <point x="178" y="454" type="line"/>
      <point x="69" y="454" type="line"/>
      <point x="69" y="635" type="line"/>
      <point x="18" y="635" type="line"/>
      <point x="18" y="120" type="line" smooth="yes"/>
      <point x="18" y="48"/>
      <point x="46" y="7"/>
      <point x="114" y="-12" type="curve"/>
      <point x="129" y="27" type="line"/>
      <point x="89" y="41"/>
      <point x="69" y="72"/>
    </contour>
  </outline>
</glyph>
<glyph name="u" format="1">
  <advance width="367"/>
  <unicode hex="0075"/>
  <outline>
    <contour>
      <point x="298" y="44" type="curve"/>
      <point x="298" y="0" type="line" name="hr01"/>
      <point x="349" y="0" type="line"/>
      <point x="349" y="454" type="line"/>
      <point x="298" y="454" type="line"/>
      <point x="298" y="156" type="line" smooth="yes"/>
      <point x="298" y="92"/>
      <point x="247" y="40"/>
      <point x="183" y="40" type="curve" smooth="yes" name="hr02"/>
      <point x="125" y="40"/>
      <point x="65" y="62"/>
      <point x="65" y="145" type="curve" smooth="yes"/>
      <point x="65" y="454" type="line"/>
      <point x="14" y="454" type="line"/>
      <point x="14" y="142" type="line" smooth="yes"/>
      <point x="14" y="39"/>
      <point x="71" y="-9"/>
      <point x="172" y="-9" type="curve" smooth="yes"/>
      <point x="217" y="-9"/>
      <point x="267" y="8"/>
    </contour>
  </outline>
</glyph>
<glyph name="v" format="1">
  <advance width="355"/>
  <unicode hex="0076"/>
  <outline>
    <contour>
      <point x="209" y="0" type="line" name="hr00"/>
      <point x="350" y="454" type="line"/>
      <point x="296" y="454" type="line"/>
      <point x="175" y="53" type="line"/>
      <point x="54" y="454" type="line"/>
      <point x="1" y="454" type="line"/>
      <point x="139" y="0" type="line"/>
    </contour>
  </outline>
</glyph>
<glyph name="w" format="1">
  <advance width="610"/>
  <unicode hex="0077"/>
  <outline>
    <contour>
      <point x="175" y="52" type="line" name="hr00"/>
      <point x="54" y="453" type="line"/>
      <point x="1" y="453" type="line"/>
      <point x="139" y="0" type="line"/>
      <point x="209" y="0" type="line"/>
      <point x="302" y="367" type="line"/>
      <point x="393" y="0" type="line"/>
      <point x="463" y="0" type="line"/>
      <point x="604" y="453" type="line"/>
      <point x="550" y="453" type="line"/>
      <point x="429" y="52" type="line"/>
      <point x="329" y="453" type="line"/>
      <point x="277" y="453" type="line"/>
    </contour>
  </outline>
</glyph>
<glyph name="asciitilde" format="1">
  <advance width="315"/>
  <unicode hex="007E"/>
  <outline>
    <contour>
      <point x="297" y="277" type="curve"/>
      <point x="275" y="315" type="line"/>
      <point x="260" y="299"/>
      <point x="242" y="289"/>
      <point x="219" y="288" type="curve" smooth="yes"/>
      <point x="176" y="287"/>
      <point x="136" y="321"/>
      <point x="91" y="321" type="curve" smooth="yes" name="hr01"/>
      <point x="67" y="321"/>
      <point x="43" y="312"/>
      <point x="16" y="284" type="curve"/>
      <point x="37" y="246" type="line"/>
      <point x="59" y="266"/>
      <point x="79" y="272"/>
      <point x="98" y="271" type="curve" smooth="yes"/>
      <point x="139" y="269"/>
      <point x="178" y="238"/>
      <point x="221" y="238" type="curve" name="hr02"/>
      <point x="244" y="237"/>
      <point x="269" y="247"/>
    </contour>
  </outline>
</glyph>
<glyph name="yen" format="1">
  <advance width="456"/>
  <unicode hex="00A5"/>
  <outline>
    <contour>
      <point x="203" y="135" type="line"/>
      <point x="83" y="135" type="line"/>
      <point x="83" y="85" type="line"/>
      <point x="203" y="85" type="line"/>
      <point x="203" y="0" type="line" name="hr01"/>
      <point x="254" y="0" type="line"/>
      <point x="254" y="85" type="line" name="hr02"/>
      <point x="373" y="85" type="line"/>
      <point x="373" y="135" type="line"/>
      <point x="254" y="135" type="line"/>
      <point x="254" y="180" type="line"/>
      <point x="373" y="180" type="line"/>
      <point x="373" y="230" type="line"/>
      <point x="254" y="230" type="line"/>
      <point x="254" y="310" type="line"/>
      <point x="442" y="635" type="line"/>
      <point x="385" y="635" type="line"/>
      <point x="227" y="368" type="line"/>
      <point x="72" y="635" type="line"/>
      <point x="14" y="635" type="line"/>
      <point x="203" y="308" type="line"/>
      <point x="203" y="230" type="line"/>
      <point x="83" y="230" type="line"/>
      <point x="83" y="180" type="line"/>
      <point x="203" y="180" type="line"/>
    </contour>
  </outline>
</glyph>
<glyph name="sfthyphen" format="1">
  <advance width="439"/>
  <unicode hex="00AD"/>
  <outline>
    <contour>
      <point x="328" y="375" type="line" name="hr00"/>
      <point x="38" y="375" type="line"/>
      <point x="38" y="323" type="line"/>
      <point x="328" y="323" type="line"/>
    </contour>
  </outline>
</glyph>
<glyph name="overscore" format="1">
  <advance width="340"/>
  <unicode hex="00AF"/>
  <outline>
    <contour>
      <point x="269" y="614" type="line" name="hr00"/>
      <point x="69" y="614" type="line"/>
      <point x="69" y="561" type="line"/>
      <point x="269" y="561" type="line"/>
    </contour>
  </outline>
</glyph>
<glyph name="degree" format="1">
  <advance width="295"/>
  <unicode hex="00B0"/>
  <outline>
    <contour>
      <point x="279" y="512" type="curve" smooth="yes" name="hr00"/>
      <point x="279" y="585"/>
      <point x="220" y="644"/>
      <point x="147" y="644" type="curve" smooth="yes"/>
      <point x="74" y="644"/>
      <point x="15" y="585"/>
      <point x="15" y="512" type="curve" smooth="yes"/>
      <point x="15" y="439"/>
      <point x="74" y="380"/>
      <point x="147" y="380" type="curve" smooth="yes"/>
      <point x="220" y="380"/>
      <point x="279" y="439"/>
    </contour>
    <contour>
      <point x="147" y="598" type="curve" smooth="yes"/>
      <point x="194" y="598"/>
      <point x="233" y="559"/>
      <point x="233" y="512" type="curve" smooth="yes"/>
      <point x="233" y="465"/>
      <point x="194" y="426"/>
      <point x="147" y="426" type="curve" smooth="yes"/>
      <point x="100" y="426"/>
      <point x="61" y="465"/>
      <point x="61" y="512" type="curve" smooth="yes"/>
      <point x="61" y="559"/>
      <point x="100" y="598"/>
    </contour>
  </outline>
</glyph>
<glyph name="plusminus" format="1">
  <advance width="325"/>
  <unicode hex="00B1"/>
  <outline>
    <contour>
      <point x="139" y="224" type="line" name="hr00"/>
      <point x="17" y="224" type="line"/>
      <point x="17" y="172" type="line"/>
      <point x="307" y="172" type="line"/>
      <point x="307" y="224" type="line"/>
      <point x="189" y="224" type="line"/>
      <point x="189" y="343" type="line"/>
      <point x="308" y="343" type="line"/>
      <point x="308" y="392" type="line"/>
      <point x="189" y="392" type="line"/>
      <point x="189" y="512" type="line"/>
      <point x="139" y="512" type="line"/>
      <point x="139" y="392" type="line"/>
      <point x="18" y="392" type="line"/>
      <point x="18" y="343" type="line"/>
      <point x="139" y="343" type="line"/>
    </contour>
  </outline>
</glyph>
<glyph name="guillemotright" format="1">
  <advance width="435"/>
  <unicode hex="00BB"/>
  <outline>
    <contour>
      <point x="49" y="72" type="line" name="hr00"/>
      <point x="219" y="242" type="line"/>
      <point x="49" y="412" type="line"/>
      <point x="16" y="378" type="line"/>
      <point x="152" y="242" type="line"/>
      <point x="18" y="103" type="line"/>
    </contour>
    <contour>
      <point x="249" y="72" type="line"/>
      <point x="418" y="242" type="line"/>
      <point x="249" y="412" type="line"/>
      <point x="215" y="378" type="line"/>
      <point x="351" y="242" type="line"/>
      <point x="217" y="103" type="line"/>
    </contour>
  </outline>
</glyph>
<glyph name="Aacute" format="1">
  <advance width="467"/>
  <unicode hex="00C1"/>
  <outline>
    <component base="A"/>
    <contour>
      <point x="253" y="779" type="curve" name="hr01"/>
      <point x="215" y="674" type="line"/>
      <point x="250" y="674" type="line"/>
      <point x="302" y="751" type="line"/>
      <point x="315" y="766"/>
      <point x="313" y="788"/>
      <point x="296" y="798" type="curve" smooth="yes"/>
      <point x="278" y="808"/>
      <point x="258" y="797"/>
    </contour>
    <contour>
      <point x="215" y="674" type="move" name="new anchor"/>
    </contour>
  </outline>
</glyph>
<glyph name="Atilde" format="1">
  <advance width="467"/>
  <unicode hex="00C3"/>
  <outline>
    <contour>
      <point x="208" y="635" type="line"/>
      <point x="5" y="0" type="line"/>
      <point x="59" y="0" type="line"/>
      <point x="130" y="222" type="line"/>
      <point x="336" y="222" type="line"/>
      <point x="409" y="0" type="line"/>
      <point x="463" y="0" type="line"/>
      <point x="256" y="635" type="line"/>
    </contour>
    <contour>
      <point x="323" y="272" type="line"/>
      <point x="144" y="272" type="line"/>
      <point x="232" y="556" type="line"/>
    </contour>
    <contour>
      <point x="356" y="704" type="curve"/>
      <point x="337" y="747" type="line"/>
      <point x="326" y="737"/>
      <point x="307" y="729"/>
      <point x="290" y="729" type="curve" smooth="yes"/>
      <point x="277" y="729"/>
      <point x="235" y="752"/>
      <point x="191" y="752" type="curve" smooth="yes" name="hr01"/>
      <point x="167" y="752"/>
      <point x="141" y="745"/>
      <point x="120" y="723" type="curve"/>
      <point x="141" y="681" type="line"/>
      <point x="154" y="691"/>
      <point x="164" y="698"/>
      <point x="182" y="699" type="curve" smooth="yes"/>
      <point x="210" y="701"/>
      <point x="250" y="677"/>
      <point x="291" y="677" type="curve" smooth="yes" name="hr02"/>
      <point x="313" y="677"/>
      <point x="335" y="684"/>
    </contour>
  </outline>
</glyph>
<glyph name="Aring" format="1">
  <advance width="468"/>
  <unicode hex="00C5"/>
  <outline>
    <contour>
      <point x="208" y="635" type="line" name="hr00"/>
      <point x="5" y="0" type="line"/>
      <point x="59" y="0" type="line"/>
      <point x="130" y="222" type="line"/>
      <point x="336" y="222" type="line"/>
      <point x="409" y="0" type="line"/>
      <point x="463" y="0" type="line"/>
      <point x="257" y="635" type="line"/>
    </contour>
    <contour>
      <point x="323" y="272" type="line"/>
      <point x="144" y="272" type="line"/>
      <point x="232" y="556" type="line"/>
    </contour>
    <contour>
      <point x="233" y="600" type="curve" smooth="yes"/>
      <point x="291" y="600"/>
      <point x="337" y="646"/>
      <point x="337" y="703" type="curve" smooth="yes"/>
      <point x="337" y="760"/>
      <point x="291" y="807"/>
      <point x="233" y="807" type="curve" smooth="yes"/>
      <point x="176" y="807"/>
      <point x="130" y="760"/>
      <point x="130" y="703" type="curve" smooth="yes"/>
      <point x="130" y="646"/>
      <point x="176" y="600"/>
    </contour>
    <contour>
      <point x="297" y="703" type="curve" smooth="yes"/>
      <point x="297" y="668"/>
      <point x="268" y="640"/>
      <point x="233" y="640" type="curve" smooth="yes"/>
      <point x="198" y="640"/>
      <point x="170" y="668"/>
      <point x="170" y="703" type="curve" smooth="yes"/>
      <point x="170" y="738"/>
      <point x="198" y="767"/>
      <point x="233" y="767" type="curve" smooth="yes"/>
      <point x="268" y="767"/>
      <point x="297" y="738"/>
    </contour>
  </outline>
</glyph>
<glyph name="AE" format="1">
  <advance width="651"/>
  <unicode hex="00C6"/>
  <outline>
    <contour>
      <point x="636" y="45" type="line" name="hr00"/>
      <point x="385" y="45" type="line"/>
      <point x="385" y="323" type="line"/>
      <point x="542" y="323" type="line"/>
      <point x="559" y="375" type="line"/>
      <point x="385" y="375" type="line"/>
      <point x="385" y="586" type="line"/>
      <point x="639" y="586" type="line"/>
      <point x="639" y="635" type="line"/>
      <point x="250" y="635" type="line"/>
      <point x="4" y="0" type="line"/>
      <point x="57" y="0" type="line"/>
      <point x="143" y="221" type="line"/>
      <point x="334" y="221" type="line"/>
      <point x="334" y="0" type="line"/>
      <point x="636" y="0" type="line"/>
    </contour>
    <contour>
      <point x="334" y="586" type="line"/>
      <point x="334" y="272" type="line"/>
      <point x="162" y="272" type="line"/>
      <point x="285" y="586" type="line"/>
    </contour>
  </outline>
</glyph>
<glyph name="Egrave" format="1">
  <advance width="334"/>
  <unicode hex="00C8"/>
  <outline>
    <contour>
      <point x="320" y="45" type="line"/>
      <point x="70" y="45" type="line"/>
      <point x="70" y="324" type="line"/>
      <point x="226" y="324" type="line"/>
      <point x="243" y="374" type="line"/>
      <point x="70" y="374" type="line"/>
      <point x="70" y="587" type="line"/>
      <point x="322" y="587" type="line"/>
      <point x="322" y="635" type="line"/>
      <point x="19" y="635" type="line"/>
      <point x="19" y="0" type="line"/>
      <point x="320" y="0" type="line"/>
    </contour>
    <contour>
      <point x="106" y="747" type="curve" name="hr01"/>
      <point x="154" y="675" type="line"/>
      <point x="186" y="675" type="line"/>
      <point x="152" y="772" type="line"/>
      <point x="147" y="789"/>
      <point x="128" y="799"/>
      <point x="112" y="790" type="curve" smooth="yes"/>
      <point x="96" y="781"/>
      <point x="95" y="760"/>
    </contour>
  </outline>
</glyph>
<glyph name="Ecircumflex" format="1">
  <advance width="335"/>
  <unicode hex="00CA"/>
  <outline>
    <contour>
      <point x="321" y="45" type="line" name="hr00"/>
      <point x="71" y="45" type="line"/>
      <point x="71" y="324" type="line"/>
      <point x="227" y="324" type="line"/>
      <point x="244" y="374" type="line"/>
      <point x="71" y="374" type="line"/>
      <point x="71" y="587" type="line"/>
      <point x="323" y="587" type="line"/>
      <point x="323" y="635" type="line"/>
      <point x="20" y="635" type="line"/>
      <point x="20" y="0" type="line"/>
      <point x="321" y="0" type="line"/>
    </contour>
    <contour>
      <point x="173" y="757" type="line"/>
      <point x="254" y="677" type="line"/>
      <point x="290" y="711" type="line"/>
      <point x="173" y="826" type="line"/>
      <point x="53" y="710" type="line"/>
      <point x="89" y="675" type="line"/>
    </contour>
  </outline>
</glyph>
<glyph name="Odieresis" format="1">
  <advance width="411"/>
  <unicode hex="00D6"/>
  <outline>
    <contour>
      <point x="14" y="460" type="curve" name="hr00"/>
      <point x="14" y="168" type="line" smooth="yes"/>
      <point x="14" y="51"/>
      <point x="98" y="-10"/>
      <point x="205" y="-10" type="curve" smooth="yes"/>
      <point x="317" y="-10"/>
      <point x="395" y="58"/>
      <point x="395" y="168" type="curve" smooth="yes"/>
      <point x="395" y="459" type="line" smooth="yes"/>
      <point x="395" y="577"/>
      <point x="326" y="649"/>
      <point x="206" y="649" type="curve" smooth="yes"/>
      <point x="86" y="649"/>
      <point x="14" y="584"/>
    </contour>
    <contour>
      <point x="65" y="169" type="curve"/>
      <point x="65" y="468" type="line" smooth="yes"/>
      <point x="65" y="556"/>
      <point x="120" y="601"/>
      <point x="204" y="601" type="curve" smooth="yes"/>
      <point x="289" y="601"/>
      <point x="345" y="556"/>
      <point x="345" y="468" type="curve" smooth="yes"/>
      <point x="345" y="169" type="line" smooth="yes"/>
      <point x="345" y="80"/>
      <point x="287" y="38"/>
      <point x="204" y="38" type="curve" smooth="yes"/>
      <point x="124" y="38"/>
      <point x="65" y="82"/>
    </contour>
    <contour>
      <point x="276" y="767" type="curve" smooth="yes"/>
      <point x="259" y="767"/>
      <point x="245" y="753"/>
      <point x="245" y="736" type="curve" smooth="yes"/>
      <point x="245" y="719"/>
      <point x="259" y="706"/>
      <point x="276" y="706" type="curve" smooth="yes"/>
      <point x="292" y="706"/>
      <point x="306" y="719"/>
      <point x="306" y="736" type="curve" smooth="yes"/>
      <point x="306" y="753"/>
      <point x="292" y="767"/>
    </contour>
    <contour>
      <point x="132" y="767" type="curve" smooth="yes"/>
      <point x="115" y="767"/>
      <point x="102" y="753"/>
      <point x="102" y="736" type="curve" smooth="yes"/>
      <point x="102" y="719"/>
      <point x="115" y="706"/>
      <point x="132" y="706" type="curve" smooth="yes"/>
      <point x="149" y="706"/>
      <point x="163" y="719"/>
      <point x="163" y="736" type="curve" smooth="yes"/>
      <point x="163" y="753"/>
      <point x="149" y="767"/>
    </contour>
  </outline>
</glyph>
<glyph name="atilde" format="1">
  <advance width="375"/>
  <unicode hex="00E3"/>
  <outline>
    <contour>
      <point x="308" y="317" type="curve" name="hr02"/>
      <point x="266" y="341"/>
      <point x="208" y="365"/>
      <point x="149" y="365" type="curve" smooth="yes"/>
      <point x="76" y="365"/>
      <point x="10" y="330"/>
      <point x="10" y="228" type="curve" smooth="yes"/>
      <point x="10" y="203"/>
      <point x="10" y="178"/>
      <point x="10" y="153" type="curve" smooth="yes"/>
      <point x="10" y="19"/>
      <point x="99" y="-13"/>
      <point x="216" y="-9" type="curve" smooth="yes"/>
      <point x="261" y="-8"/>
      <point x="359" y="0"/>
      <point x="359" y="0" type="curve" name="hr01"/>
      <point x="359" y="87"/>
      <point x="359" y="174"/>
      <point x="359" y="261" type="curve" smooth="yes"/>
      <point x="359" y="341"/>
      <point x="352" y="404"/>
      <point x="295" y="436" type="curve" smooth="yes"/>
      <point x="257" y="458"/>
      <point x="212" y="461"/>
      <point x="170" y="461" type="curve"/>
      <point x="168" y="422" type="line"/>
      <point x="202" y="422"/>
      <point x="233" y="419"/>
      <point x="256" y="408" type="curve" smooth="yes"/>
      <point x="289" y="393"/>
      <point x="308" y="367"/>
    </contour>
    <contour>
      <point x="308" y="275" type="curve"/>
      <point x="308" y="197"/>
      <point x="308" y="120"/>
      <point x="308" y="42" type="curve" smooth="yes" name="hr03"/>
      <point x="308" y="42"/>
      <point x="271" y="38"/>
      <point x="212" y="35" type="curve" smooth="yes" name="hr04"/>
      <point x="91" y="30"/>
      <point x="60" y="73"/>
      <point x="60" y="159" type="curve" smooth="yes"/>
      <point x="60" y="177"/>
      <point x="60" y="205"/>
      <point x="60" y="226" type="curve" smooth="yes"/>
      <point x="60" y="308"/>
      <point x="112" y="322"/>
      <point x="145" y="322" type="curve" smooth="yes"/>
      <point x="203" y="322"/>
      <point x="258" y="299"/>
    </contour>
    <contour>
      <point x="303" y="530" type="curve"/>
      <point x="284" y="573" type="line"/>
      <point x="272" y="563"/>
      <point x="253" y="555"/>
      <point x="236" y="555" type="curve" smooth="yes"/>
      <point x="224" y="555"/>
      <point x="182" y="578"/>
      <point x="138" y="578" type="curve" smooth="yes" name="hr05"/>
      <point x="113" y="578"/>
      <point x="88" y="571"/>
      <point x="67" y="549" type="curve"/>
      <point x="87" y="507" type="line"/>
      <point x="100" y="518"/>
      <point x="111" y="524"/>
      <point x="128" y="525" type="curve" smooth="yes"/>
      <point x="156" y="527"/>
      <point x="196" y="503"/>
      <point x="238" y="503" type="curve" smooth="yes" name="hr06"/>
      <point x="260" y="503"/>
      <point x="282" y="510"/>
    </contour>
  </outline>
</glyph>
<glyph name="edieresis" format="1">
  <advance width="353"/>
  <unicode hex="00EB"/>
  <outline>
    <contour>
      <point x="64" y="121" type="curve"/>
      <point x="64" y="177" type="line"/>
      <point x="340" y="192" type="line"/>
      <point x="340" y="310" type="line" smooth="yes"/>
      <point x="340" y="356"/>
      <point x="326" y="393"/>
      <point x="301" y="419" type="curve" smooth="yes"/>
      <point x="273" y="447"/>
      <point x="232" y="462"/>
      <point x="180" y="462" type="curve" smooth="yes"/>
      <point x="135" y="462"/>
      <point x="97" y="451"/>
      <point x="69" y="430" type="curve" smooth="yes"/>
      <point x="34" y="404"/>
      <point x="13" y="362"/>
      <point x="13" y="307" type="curve" smooth="yes"/>
      <point x="13" y="121" type="line" smooth="yes"/>
      <point x="13" y="73"/>
      <point x="28" y="42"/>
      <point x="50" y="22" type="curve" smooth="yes"/>
      <point x="87" y="-12"/>
      <point x="142" y="-11"/>
      <point x="169" y="-11" type="curve" smooth="yes"/>
      <point x="215" y="-10"/>
      <point x="271" y="4"/>
      <point x="317" y="32" type="curve"/>
      <point x="297" y="71" type="line"/>
      <point x="251" y="46"/>
      <point x="209" y="33"/>
      <point x="165" y="33" type="curve" smooth="yes"/>
      <point x="147" y="33"/>
      <point x="110" y="33"/>
      <point x="87" y="57" type="curve"/>
      <point x="73" y="70"/>
      <point x="64" y="90"/>
    </contour>
    <contour>
      <point x="289" y="316" type="curve" smooth="yes"/>
      <point x="289" y="290"/>
      <point x="289" y="263"/>
      <point x="289" y="237" type="curve"/>
      <point x="64" y="227" type="line"/>
      <point x="64" y="253"/>
      <point x="64" y="280"/>
      <point x="64" y="306" type="curve" smooth="yes"/>
      <point x="64" y="344"/>
      <point x="75" y="371"/>
      <point x="95" y="390" type="curve" smooth="yes"/>
      <point x="116" y="409"/>
      <point x="145" y="419"/>
      <point x="179" y="419" type="curve" smooth="yes"/>
      <point x="209" y="419"/>
      <point x="240" y="413"/>
      <point x="268" y="380" type="curve" smooth="yes"/>
      <point x="282" y="363"/>
      <point x="289" y="343"/>
    </contour>
    <contour>
      <point x="248" y="583" type="curve" smooth="yes" name="hr01"/>
      <point x="231" y="583"/>
      <point x="218" y="569"/>
      <point x="218" y="552" type="curve" smooth="yes"/>
      <point x="218" y="535"/>
      <point x="231" y="522"/>
      <point x="248" y="522" type="curve" smooth="yes"/>
      <point x="265" y="522"/>
      <point x="279" y="535"/>
      <point x="279" y="552" type="curve" smooth="yes"/>
      <point x="279" y="569"/>
      <point x="265" y="583"/>
    </contour>
    <contour>
      <point x="105" y="583" type="curve" smooth="yes"/>
      <point x="88" y="583"/>
      <point x="74" y="569"/>
      <point x="74" y="552" type="curve" smooth="yes"/>
      <point x="74" y="535"/>
      <point x="88" y="522"/>
      <point x="105" y="522" type="curve" smooth="yes"/>
      <point x="121" y="522"/>
      <point x="135" y="535"/>
      <point x="135" y="552" type="curve" smooth="yes"/>
      <point x="135" y="569"/>
      <point x="121" y="583"/>
    </contour>
  </outline>
</glyph>
<glyph name="igrave" format="1">
  <advance width="127"/>
  <unicode hex="00EC"/>
  <outline>
    <contour>
      <point x="109" y="454" type="line" name="hr00"/>
      <point x="59" y="454" type="line"/>
      <point x="59" y="0" type="line"/>
      <point x="109" y="0" type="line"/>
    </contour>
    <contour>
      <point x="14" y="566" type="curve"/>
      <point x="62" y="494" type="line"/>
      <point x="94" y="494" type="line"/>
      <point x="60" y="592" type="line" smooth="yes"/>
      <point x="54" y="608"/>
      <point x="36" y="618"/>
      <point x="20" y="610" type="curve" smooth="yes"/>
      <point x="4" y="601"/>
      <point x="2" y="580"/>
    </contour>
  </outline>
</glyph>
<glyph name="iacute" format="1">
  <advance width="126"/>
  <unicode hex="00ED"/>
  <outline>
    <contour>
      <point x="69" y="454" type="line" name="hr00"/>
      <point x="18" y="454" type="line"/>
      <point x="18" y="0" type="line"/>
      <point x="69" y="0" type="line"/>
    </contour>
    <contour>
      <point x="64" y="592" type="curve"/>
      <point x="29" y="494" type="line"/>
      <point x="62" y="494" type="line"/>
      <point x="110" y="566" type="line"/>
      <point x="121" y="580"/>
      <point x="120" y="601"/>
      <point x="104" y="610" type="curve" smooth="yes"/>
      <point x="88" y="618"/>
      <point x="69" y="608"/>
    </contour>
  </outline>
</glyph>
<glyph name="otilde" format="1">
  <advance width="359"/>
  <unicode hex="00F5"/>
  <outline>
    <contour>
      <point x="346" y="167" type="curve"/>
      <point x="346" y="286" type="line" smooth="yes"/>
      <point x="346" y="396"/>
      <point x="288" y="464"/>
      <point x="180" y="464" type="curve" smooth="yes"/>
      <point x="72" y="464"/>
      <point x="11" y="402"/>
      <point x="11" y="286" type="curve" smooth="yes"/>
      <point x="11" y="167" type="line" smooth="yes"/>
      <point x="11" y="68"/>
      <point x="69" y="-9"/>
      <point x="182" y="-9" type="curve" smooth="yes"/>
      <point x="294" y="-9"/>
      <point x="346" y="65"/>
    </contour>
    <contour>
      <point x="295" y="286" type="curve"/>
      <point x="295" y="158" type="line" smooth="yes"/>
      <point x="295" y="84"/>
      <point x="257" y="36"/>
      <point x="182" y="36" type="curve" smooth="yes"/>
      <point x="108" y="36"/>
      <point x="62" y="85"/>
      <point x="62" y="158" type="curve" smooth="yes"/>
      <point x="62" y="286" type="line" smooth="yes"/>
      <point x="62" y="374"/>
      <point x="102" y="418"/>
      <point x="182" y="418" type="curve" smooth="yes"/>
      <point x="260" y="418"/>
      <point x="295" y="374"/>
    </contour>
    <contour>
      <point x="297" y="528" type="curve"/>
      <point x="278" y="571" type="line"/>
      <point x="266" y="561"/>
      <point x="247" y="553"/>
      <point x="230" y="553" type="curve" smooth="yes"/>
      <point x="218" y="553"/>
      <point x="176" y="576"/>
      <point x="132" y="576" type="curve" smooth="yes" name="hr01"/>
      <point x="107" y="576"/>
      <point x="82" y="569"/>
      <point x="61" y="547" type="curve"/>
      <point x="81" y="505" type="line"/>
      <point x="94" y="515"/>
      <point x="105" y="522"/>
      <point x="123" y="523" type="curve" smooth="yes"/>
      <point x="150" y="525"/>
      <point x="190" y="501"/>
      <point x="232" y="501" type="curve" smooth="yes" name="hr02"/>
      <point x="254" y="501"/>
      <point x="276" y="508"/>
    </contour>
  </outline>
</glyph>
<glyph name="oslash" format="1">
  <advance width="359"/>
  <unicode hex="00F8"/>
  <outline>
    <contour>
      <point x="345" y="167" type="curve" name="hr00"/>
      <point x="345" y="286" type="line" smooth="yes"/>
      <point x="345" y="346"/>
      <point x="327" y="393"/>
      <point x="294" y="424" type="curve"/>
      <point x="341" y="532" type="line"/>
      <point x="288" y="532" type="line"/>
      <point x="252" y="450" type="line"/>
      <point x="231" y="459"/>
      <point x="207" y="464"/>
      <point x="179" y="464" type="curve" smooth="yes"/>
      <point x="71" y="464"/>
      <point x="10" y="402"/>
      <point x="10" y="286" type="curve" smooth="yes"/>
      <point x="10" y="167" type="line" smooth="yes"/>
      <point x="10" y="108"/>
      <point x="30" y="58"/>
      <point x="70" y="26" type="curve"/>
      <point x="33" y="-60" type="line"/>
      <point x="84" y="-60" type="line"/>
      <point x="111" y="2" type="line"/>
      <point x="131" y="-5"/>
      <point x="154" y="-9"/>
      <point x="181" y="-9" type="curve" smooth="yes"/>
      <point x="293" y="-9"/>
      <point x="345" y="65"/>
    </contour>
    <contour>
      <point x="61" y="158" type="curve"/>
      <point x="61" y="286" type="line" smooth="yes"/>
      <point x="61" y="374"/>
      <point x="101" y="418"/>
      <point x="181" y="418" type="curve" smooth="yes"/>
      <point x="202" y="418"/>
      <point x="219" y="415"/>
      <point x="234" y="408" type="curve"/>
      <point x="90" y="73" type="line"/>
      <point x="71" y="94"/>
      <point x="61" y="123"/>
    </contour>
    <contour>
      <point x="294" y="286" type="curve"/>
      <point x="294" y="158" type="line" smooth="yes"/>
      <point x="294" y="84"/>
      <point x="256" y="36"/>
      <point x="181" y="36" type="curve" smooth="yes"/>
      <point x="162" y="36"/>
      <point x="144" y="39"/>
      <point x="129" y="45" type="curve"/>
      <point x="273" y="376" type="line"/>
      <point x="287" y="354"/>
      <point x="294" y="324"/>
    </contour>
  </outline>
</glyph>
<glyph name="uacute" format="1">
  <advance width="365"/>
  <unicode hex="00FA"/>
  <outline>
    <contour>
      <point x="297" y="44" type="curve"/>
      <point x="297" y="0" type="line" name="hr01"/>
      <point x="348" y="0" type="line"/>
      <point x="348" y="454" type="line"/>
      <point x="297" y="454" type="line"/>
      <point x="297" y="156" type="line" smooth="yes"/>
      <point x="297" y="92"/>
      <point x="246" y="40"/>
      <point x="182" y="40" type="curve" smooth="yes" name="hr02"/>
      <point x="124" y="40"/>
      <point x="64" y="62"/>
      <point x="64" y="145" type="curve" smooth="yes"/>
      <point x="64" y="454" type="line"/>
      <point x="13" y="454" type="line"/>
      <point x="13" y="142" type="line" smooth="yes"/>
      <point x="13" y="39"/>
      <point x="70" y="-9"/>
      <point x="171" y="-9" type="curve" smooth="yes"/>
      <point x="216" y="-9"/>
      <point x="266" y="8"/>
    </contour>
    <contour>
      <point x="203" y="590" type="curve" name="hr03"/>
      <point x="169" y="493" type="line"/>
      <point x="201" y="493" type="line"/>
      <point x="249" y="565" type="line"/>
      <point x="260" y="578"/>
      <point x="259" y="599"/>
      <point x="243" y="608" type="curve" smooth="yes"/>
      <point x="227" y="617"/>
      <point x="208" y="607"/>
    </contour>
  </outline>
</glyph>
<glyph name="ydieresis" format="1">
  <advance width="390"/>
  <unicode hex="00FF"/>
  <outline>
    <contour>
      <point x="379" y="425" type="curve"/>
      <point x="361" y="464" type="line"/>
      <point x="317" y="449"/>
      <point x="298" y="412"/>
      <point x="298" y="371" type="curve" smooth="yes"/>
      <point x="298" y="157" type="line" smooth="yes"/>
      <point x="298" y="93"/>
      <point x="247" y="40"/>
      <point x="183" y="40" type="curve" smooth="yes"/>
      <point x="126" y="40"/>
      <point x="65" y="63"/>
      <point x="65" y="146" type="curve" smooth="yes"/>
      <point x="65" y="454" type="line"/>
      <point x="14" y="454" type="line"/>
      <point x="14" y="143" type="line" smooth="yes"/>
      <point x="14" y="40"/>
      <point x="72" y="-8"/>
      <point x="172" y="-8" type="curve" smooth="yes"/>
      <point x="217" y="-8"/>
      <point x="268" y="9"/>
      <point x="298" y="45" type="curve"/>
      <point x="298" y="-55" type="line" smooth="yes"/>
      <point x="298" y="-81"/>
      <point x="293" y="-102"/>
      <point x="281" y="-118" type="curve" smooth="yes"/>
      <point x="271" y="-132"/>
      <point x="257" y="-143"/>
      <point x="239" y="-150" type="curve"/>
      <point x="254" y="-189" type="line"/>
      <point x="283" y="-179"/>
      <point x="305" y="-167"/>
      <point x="321" y="-150" type="curve" smooth="yes"/>
      <point x="341" y="-127"/>
      <point x="349" y="-97"/>
      <point x="349" y="-56" type="curve" smooth="yes"/>
      <point x="349" y="370" type="line" smooth="yes"/>
      <point x="349" y="407"/>
      <point x="362" y="418"/>
    </contour>
    <contour>
      <point x="264" y="578" type="curve" smooth="yes" name="hr01"/>
      <point x="248" y="578"/>
      <point x="234" y="564"/>
      <point x="234" y="547" type="curve" smooth="yes"/>
      <point x="234" y="530"/>
      <point x="248" y="517"/>
      <point x="264" y="517" type="curve" smooth="yes"/>
      <point x="281" y="517"/>
      <point x="295" y="530"/>
      <point x="295" y="547" type="curve" smooth="yes"/>
      <point x="295" y="564"/>
      <point x="281" y="578"/>
    </contour>
    <contour>
      <point x="121" y="578" type="curve" smooth="yes"/>
      <point x="104" y="578"/>
      <point x="90" y="564"/>
      <point x="90" y="547" type="curve" smooth="yes"/>
      <point x="90" y="530"/>
      <point x="104" y="517"/>
      <point x="121" y="517" type="curve" smooth="yes"/>
      <point x="138" y="517"/>
      <point x="151" y="530"/>
      <point x="151" y="547" type="curve" smooth="yes"/>
      <point x="151" y="564"/>
      <point x="138" y="578"/>
    </contour>
  </outline>
</glyph>
<glyph name="Amacron" format="1">
  <advance width="467"/>
  <unicode hex="0100"/>
  <outline>
    <contour>
      <point x="208" y="635" type="line" name="hr00"/>
      <point x="5" y="0" type="line"/>
      <point x="59" y="0" type="line"/>
      <point x="130" y="222" type="line"/>
      <point x="336" y="222" type="line"/>
      <point x="409" y="0" type="line"/>
      <point x="463" y="0" type="line"/>
      <point x="256" y="635" type="line"/>
    </contour>
    <contour>
      <point x="323" y="272" type="line"/>
      <point x="144" y="272" type="line"/>
      <point x="232" y="556" type="line"/>
    </contour>
    <contour>
      <point x="332" y="726" type="line"/>
      <point x="132" y="726" type="line"/>
      <point x="132" y="674" type="line"/>
      <point x="332" y="674" type="line"/>
    </contour>
  </outline>
</glyph>
<glyph name="Cdotaccent" format="1">
  <advance width="351"/>
  <unicode hex="010A"/>
  <outline>
    <contour>
      <point x="304" y="579" type="curve" name="hr00"/>
      <point x="319" y="614" type="line"/>
      <point x="280" y="634"/>
      <point x="236" y="644"/>
      <point x="190" y="644" type="curve" smooth="yes"/>
      <point x="153" y="644"/>
      <point x="120" y="636"/>
      <point x="93" y="621" type="curve"/>
      <point x="40" y="588"/>
      <point x="14" y="536"/>
      <point x="14" y="457" type="curve" smooth="yes"/>
      <point x="14" y="166" type="line" smooth="yes"/>
      <point x="14" y="90"/>
      <point x="44" y="38"/>
      <point x="88" y="14" type="curve" smooth="yes"/>
      <point x="132" y="-9"/>
      <point x="176" y="-9"/>
      <point x="195" y="-9" type="curve" smooth="yes"/>
      <point x="241" y="-9"/>
      <point x="290" y="1"/>
      <point x="342" y="21" type="curve"/>
      <point x="331" y="63" type="line"/>
      <point x="279" y="45"/>
      <point x="235" y="36"/>
      <point x="199" y="36" type="curve" smooth="yes"/>
      <point x="157" y="36"/>
      <point x="128" y="44"/>
      <point x="107" y="59" type="curve" smooth="yes"/>
      <point x="75" y="82"/>
      <point x="65" y="120"/>
      <point x="65" y="168" type="curve" smooth="yes"/>
      <point x="65" y="465" type="line" smooth="yes"/>
      <point x="65" y="516"/>
      <point x="80" y="552"/>
      <point x="111" y="574" type="curve" smooth="yes"/>
      <point x="134" y="590"/>
      <point x="166" y="598"/>
      <point x="206" y="598" type="curve" smooth="yes"/>
      <point x="237" y="598"/>
      <point x="270" y="592"/>
    </contour>
    <contour>
      <point x="181" y="759" type="curve" smooth="yes"/>
      <point x="164" y="759"/>
      <point x="150" y="745"/>
      <point x="150" y="728" type="curve" smooth="yes"/>
      <point x="150" y="711"/>
      <point x="164" y="698"/>
      <point x="181" y="698" type="curve" smooth="yes"/>
      <point x="198" y="698"/>
      <point x="211" y="711"/>
      <point x="211" y="728" type="curve" smooth="yes"/>
      <point x="211" y="745"/>
      <point x="198" y="759"/>
    </contour>
  </outline>
</glyph>
<glyph name="dcaron" format="1">
  <advance width="461"/>
  <unicode hex="010F"/>
  <outline>
    <contour>
      <point x="360" y="0" type="curve" name="hr02"/>
      <point x="360" y="635" type="line"/>
      <point x="309" y="635" type="line"/>
      <point x="309" y="428" type="line"/>
      <point x="268" y="446"/>
      <point x="221" y="462"/>
      <point x="162" y="462" type="curve" smooth="yes"/>
      <point x="89" y="462"/>
      <point x="11" y="427"/>
      <point x="11" y="325" type="curve" smooth="yes"/>
      <point x="11" y="268"/>
      <point x="11" y="210"/>
      <point x="11" y="153" type="curve" smooth="yes"/>
      <point x="11" y="19"/>
      <point x="100" y="-13"/>
      <point x="217" y="-9" type="curve" smooth="yes" name="hr01"/>
      <point x="262" y="-8"/>
      <point x="360" y="0"/>
    </contour>
    <contour>
      <point x="309" y="384" type="curve"/>
      <point x="309" y="270"/>
      <point x="309" y="156"/>
      <point x="309" y="42" type="curve" smooth="yes"/>
      <point x="309" y="42"/>
      <point x="272" y="38"/>
      <point x="214" y="35" type="curve" smooth="yes" name="hr03"/>
      <point x="92" y="30"/>
      <point x="61" y="73"/>
      <point x="61" y="159" type="curve" smooth="yes"/>
      <point x="61" y="177"/>
      <point x="61" y="302"/>
      <point x="61" y="322" type="curve" smooth="yes"/>
      <point x="61" y="405"/>
      <point x="125" y="419"/>
      <point x="158" y="419" type="curve" smooth="yes"/>
      <point x="216" y="419"/>
      <point x="260" y="404"/>
    </contour>
    <contour>
      <point x="395" y="494" type="curve" name="hr05"/>
      <point x="411" y="483" type="line"/>
      <point x="429" y="499"/>
      <point x="459" y="535"/>
      <point x="459" y="592" type="curve" smooth="yes"/>
      <point x="459" y="610"/>
      <point x="445" y="622"/>
      <point x="428" y="622" type="curve" smooth="yes"/>
      <point x="412" y="622"/>
      <point x="398" y="609"/>
      <point x="398" y="592" type="curve" smooth="yes"/>
      <point x="398" y="577"/>
      <point x="409" y="565"/>
      <point x="423" y="562" type="curve"/>
      <point x="421" y="543"/>
      <point x="414" y="518"/>
    </contour>
  </outline>
</glyph>
<glyph name="Dcroat" format="1">
  <advance width="415"/>
  <unicode hex="0110"/>
  <outline>
    <contour>
      <point x="190" y="635" type="curve" name="hr00"/>
      <point x="19" y="635" type="line"/>
      <point x="19" y="0" type="line"/>
      <point x="208" y="0" type="line" smooth="yes"/>
      <point x="336" y="0"/>
      <point x="400" y="61"/>
      <point x="400" y="181" type="curve" smooth="yes"/>
      <point x="400" y="430" type="line" smooth="yes"/>
      <point x="400" y="554"/>
      <point x="326" y="635"/>
    </contour>
    <contour>
      <point x="193" y="45" type="curve"/>
      <point x="70" y="45" type="line"/>
      <point x="70" y="589" type="line"/>
      <point x="199" y="589" type="line" smooth="yes"/>
      <point x="305" y="589"/>
      <point x="349" y="522"/>
      <point x="349" y="444" type="curve" smooth="yes"/>
      <point x="349" y="172" type="line" smooth="yes"/>
      <point x="349" y="88"/>
      <point x="297" y="45"/>
    </contour>
    <contour>
      <point x="310" y="728" type="line"/>
      <point x="109" y="728" type="line"/>
      <point x="109" y="675" type="line"/>
      <point x="310" y="675" type="line"/>
    </contour>
  </outline>
</glyph>
<glyph name="Emacron" format="1">
  <advance width="334"/>
  <unicode hex="0112"/>
  <outline>
    <contour>
      <point x="320" y="45" type="line"/>
      <point x="70" y="45" type="line"/>
      <point x="70" y="324" type="line"/>
      <point x="226" y="324" type="line"/>
      <point x="243" y="374" type="line"/>
      <point x="70" y="374" type="line"/>
      <point x="70" y="587" type="line"/>
      <point x="322" y="587" type="line"/>
      <point x="322" y="635" type="line"/>
      <point x="19" y="635" type="line"/>
      <point x="19" y="0" type="line"/>
      <point x="320" y="0" type="line"/>
    </contour>
    <contour>
      <point x="271" y="728" type="line" name="hr01"/>
      <point x="71" y="728" type="line"/>
      <point x="71" y="676" type="line"/>
      <point x="271" y="676" type="line"/>
    </contour>
  </outline>
</glyph>
<glyph name="eogonek" format="1">
  <advance width="351"/>
  <unicode hex="0119"/>
  <outline>
    <contour>
      <point x="63" y="121" type="curve"/>
      <point x="63" y="177" type="line"/>
      <point x="339" y="192" type="line"/>
      <point x="339" y="310" type="line" smooth="yes"/>
      <point x="339" y="356"/>
      <point x="325" y="393"/>
      <point x="300" y="419" type="curve" smooth="yes"/>
      <point x="272" y="447"/>
      <point x="231" y="462"/>
      <point x="179" y="462" type="curve" smooth="yes"/>
      <point x="134" y="462"/>
      <point x="96" y="451"/>
      <point x="68" y="430" type="curve" smooth="yes"/>
      <point x="33" y="404"/>
      <point x="12" y="362"/>
      <point x="12" y="307" type="curve" smooth="yes"/>
      <point x="12" y="121" type="line" smooth="yes"/>
      <point x="12" y="73"/>
      <point x="27" y="42"/>
      <point x="49" y="22" type="curve" smooth="yes"/>
      <point x="86" y="-12"/>
      <point x="141" y="-11"/>
      <point x="168" y="-11" type="curve" smooth="yes"/>
      <point x="214" y="-10"/>
      <point x="270" y="4"/>
      <point x="316" y="32" type="curve"/>
      <point x="296" y="71" type="line"/>
      <point x="250" y="46"/>
      <point x="208" y="33"/>
      <point x="164" y="33" type="curve" smooth="yes"/>
      <point x="146" y="33"/>
      <point x="109" y="33"/>
      <point x="86" y="57" type="curve"/>
      <point x="72" y="70"/>
      <point x="63" y="90"/>
    </contour>
    <contour>
      <point x="288" y="316" type="curve" smooth="yes"/>
      <point x="288" y="290"/>
      <point x="288" y="263"/>
      <point x="288" y="237" type="curve"/>
      <point x="63" y="227" type="line"/>
      <point x="63" y="253"/>
      <point x="63" y="280"/>
      <point x="63" y="306" type="curve" smooth="yes"/>
      <point x="63" y="344"/>
      <point x="74" y="371"/>
      <point x="94" y="390" type="curve" smooth="yes"/>
      <point x="115" y="409"/>
      <point x="144" y="419"/>
      <point x="178" y="419" type="curve" smooth="yes"/>
      <point x="208" y="419"/>
      <point x="239" y="413"/>
      <point x="267" y="380" type="curve" smooth="yes"/>
      <point x="281" y="363"/>
      <point x="288" y="343"/>
    </contour>
    <contour>
      <point x="129" y="-126" type="curve" name="hr01"/>
      <point x="193" y="-13" type="line"/>
      <point x="193" y="-5" type="line"/>
      <point x="153" y="-8" type="line"/>
      <point x="153" y="-13" type="line"/>
      <point x="95" y="-113" type="line" smooth="yes"/>
      <point x="58" y="-179"/>
      <point x="102" y="-243"/>
      <point x="183" y="-220" type="curve" smooth="yes"/>
      <point x="200" y="-215"/>
      <point x="276" y="-188"/>
      <point x="278" y="-188" type="curve"/>
      <point x="261" y="-151" type="line"/>
      <point x="261" y="-151"/>
      <point x="223" y="-165"/>
      <point x="173" y="-182" type="curve" smooth="yes"/>
      <point x="129" y="-197"/>
      <point x="105" y="-169"/>
    </contour>
  </outline>
</glyph>
<glyph name="gcommaaccent" format="1">
  <advance width="364"/>
  <unicode hex="0123"/>
  <outline>
    <contour>
      <point x="347" y="-58" type="curve" name="hr00"/>
      <point x="347" y="453" type="line"/>
      <point x="295" y="453" type="line"/>
      <point x="295" y="410" type="line"/>
      <point x="256" y="443"/>
      <point x="210" y="460"/>
      <point x="166" y="462" type="curve" smooth="yes"/>
      <point x="66" y="466"/>
      <point x="11" y="409"/>
      <point x="11" y="314" type="curve" smooth="yes"/>
      <point x="11" y="159" type="line" smooth="yes"/>
      <point x="11" y="48"/>
      <point x="65" y="-11"/>
      <point x="166" y="-11" type="curve" smooth="yes"/>
      <point x="221" y="-11"/>
      <point x="274" y="18"/>
      <point x="295" y="55" type="curve"/>
      <point x="295" y="-57" type="line" smooth="yes"/>
      <point x="295" y="-105"/>
      <point x="274" y="-136"/>
      <point x="234" y="-152" type="curve"/>
      <point x="249" y="-191" type="line"/>
      <point x="318" y="-169"/>
      <point x="347" y="-131"/>
    </contour>
    <contour>
      <point x="295" y="356" type="curve"/>
      <point x="295" y="157" type="line" smooth="yes"/>
      <point x="295" y="80"/>
      <point x="239" y="36"/>
      <point x="169" y="36" type="curve" smooth="yes"/>
      <point x="100" y="36"/>
      <point x="63" y="75"/>
      <point x="63" y="151" type="curve" smooth="yes"/>
      <point x="63" y="311" type="line" smooth="yes"/>
      <point x="63" y="393"/>
      <point x="119" y="421"/>
      <point x="177" y="416" type="curve" smooth="yes"/>
      <point x="217" y="413"/>
      <point x="268" y="394"/>
    </contour>
    <contour>
      <point x="213" y="651" type="curve"/>
      <point x="197" y="662" type="line"/>
      <point x="179" y="646"/>
      <point x="150" y="610"/>
      <point x="149" y="553" type="curve"/>
      <point x="150" y="535"/>
      <point x="163" y="523"/>
      <point x="180" y="523" type="curve" smooth="yes"/>
      <point x="197" y="523"/>
      <point x="210" y="536"/>
      <point x="210" y="553" type="curve" smooth="yes"/>
      <point x="210" y="568"/>
      <point x="199" y="580"/>
      <point x="185" y="583" type="curve"/>
      <point x="187" y="602"/>
      <point x="194" y="627"/>
    </contour>
  </outline>
</glyph>
<glyph name="Hbar" format="1">
  <advance width="496"/>
  <unicode hex="0126"/>
  <outline>
    <contour>
      <point x="392" y="0" type="line" name="hr00"/>
      <point x="443" y="0" type="line"/>
      <point x="443" y="453" type="line"/>
      <point x="485" y="453" type="line"/>
      <point x="485" y="502" type="line"/>
      <point x="443" y="502" type="line"/>
      <point x="443" y="635" type="line"/>
      <point x="392" y="635" type="line"/>
      <point x="392" y="502" type="line"/>
      <point x="104" y="502" type="line"/>
      <point x="104" y="635" type="line"/>
      <point x="53" y="635" type="line"/>
      <point x="53" y="502" type="line"/>
      <point x="8" y="502" type="line"/>
      <point x="8" y="453" type="line"/>
      <point x="53" y="453" type="line"/>
      <point x="53" y="0" type="line"/>
      <point x="104" y="0" type="line"/>
      <point x="104" y="324" type="line"/>
      <point x="392" y="324" type="line"/>
    </contour>
    <contour>
      <point x="104" y="374" type="line"/>
      <point x="104" y="453" type="line"/>
      <point x="392" y="453" type="line"/>
      <point x="392" y="374" type="line"/>
    </contour>
  </outline>
</glyph>
<glyph name="Itilde" format="1">
  <advance width="210"/>
  <unicode hex="0128"/>
  <outline>
    <contour>
      <point x="84" y="0" type="line"/>
      <point x="135" y="0" type="line"/>
      <point x="135" y="635" type="line"/>
      <point x="23" y="635" type="line"/>
      <point x="23" y="590" type="line"/>
      <point x="84" y="588" type="line"/>
    </contour>
    <contour>
      <point x="225" y="701" type="curve"/>
      <point x="206" y="744" type="line"/>
      <point x="194" y="735"/>
      <point x="176" y="726"/>
      <point x="159" y="727" type="curve"/>
      <point x="146" y="726"/>
      <point x="104" y="749"/>
      <point x="60" y="750" type="curve" smooth="yes" name="hr01"/>
      <point x="36" y="750"/>
      <point x="10" y="743"/>
      <point x="-11" y="721" type="curve"/>
      <point x="10" y="678" type="line"/>
      <point x="23" y="689"/>
      <point x="33" y="696"/>
      <point x="51" y="697" type="curve" smooth="yes"/>
      <point x="79" y="698"/>
      <point x="119" y="674"/>
      <point x="160" y="674" type="curve" smooth="yes" name="hr02"/>
      <point x="182" y="674"/>
      <point x="204" y="681"/>
    </contour>
  </outline>
</glyph>
<glyph name="Imacron" format="1">
  <advance width="193"/>
  <unicode hex="012A"/>
  <outline>
    <contour>
      <point x="72" y="0" type="line" name="hr00"/>
      <point x="123" y="0" type="line"/>
      <point x="123" y="635" type="line"/>
      <point x="11" y="635" type="line"/>
      <point x="11" y="590" type="line"/>
      <point x="72" y="588" type="line"/>
    </contour>
    <contour>
      <point x="197" y="726" type="line"/>
      <point x="-3" y="726" type="line"/>
      <point x="-3" y="673" type="line"/>
      <point x="197" y="673" type="line"/>
    </contour>
  </outline>
</glyph>
<glyph name="kcommaaccent" format="1">
  <advance width="356"/>
  <unicode hex="0137"/>
  <outline>
    <contour>
      <point x="155" y="319" type="curve" name="hr02"/>
      <point x="289" y="436" type="line"/>
      <point x="253" y="471" type="line"/>
      <point x="71" y="304" type="line"/>
      <point x="71" y="635" type="line"/>
      <point x="20" y="635" type="line"/>
      <point x="20" y="0" type="line"/>
      <point x="71" y="0" type="line"/>
      <point x="71" y="247" type="line"/>
      <point x="118" y="287" type="line"/>
      <point x="292" y="0" type="line"/>
      <point x="353" y="0" type="line"/>
      <point x="262" y="144"/>
      <point x="195" y="251"/>
    </contour>
    <contour>
      <point x="145" y="-159" type="curve"/>
      <point x="161" y="-170" type="line"/>
      <point x="179" y="-153"/>
      <point x="209" y="-118"/>
      <point x="209" y="-61" type="curve" smooth="yes" name="hr01"/>
      <point x="209" y="-42"/>
      <point x="195" y="-30"/>
      <point x="178" y="-30" type="curve" smooth="yes"/>
      <point x="162" y="-30"/>
      <point x="148" y="-44"/>
      <point x="148" y="-60" type="curve" smooth="yes"/>
      <point x="148" y="-76"/>
      <point x="159" y="-88"/>
      <point x="173" y="-90" type="curve"/>
      <point x="171" y="-109"/>
      <point x="164" y="-135"/>
    </contour>
  </outline>
</glyph>
<glyph name="Lcommaaccent" format="1">
  <advance width="352"/>
  <unicode hex="013B"/>
  <outline>
    <contour>
      <point x="153" y="-180" type="curve" name="hr00"/>
      <point x="169" y="-191" type="line"/>
      <point x="187" y="-174"/>
      <point x="217" y="-139"/>
      <point x="217" y="-82" type="curve" smooth="yes"/>
      <point x="217" y="-64"/>
      <point x="203" y="-51"/>
      <point x="187" y="-51" type="curve" smooth="yes"/>
      <point x="170" y="-51"/>
      <point x="156" y="-65"/>
      <point x="156" y="-82" type="curve" smooth="yes"/>
      <point x="156" y="-97"/>
      <point x="167" y="-109"/>
      <point x="182" y="-112" type="curve"/>
      <point x="179" y="-131"/>
      <point x="173" y="-156"/>
    </contour>
    <contour>
      <point x="347" y="45" type="line"/>
      <point x="71" y="45" type="line"/>
      <point x="71" y="635" type="line"/>
      <point x="20" y="635" type="line"/>
      <point x="20" y="0" type="line"/>
      <point x="347" y="0" type="line"/>
    </contour>
  </outline>
</glyph>
<glyph name="lcommaaccent" format="1">
  <advance width="98"/>
  <unicode hex="013C"/>
  <outline>
    <contour>
      <point x="73" y="635" type="line" name="hr02"/>
      <point x="23" y="635" type="line"/>
      <point x="23" y="0" type="line"/>
      <point x="73" y="0" type="line"/>
    </contour>
    <contour>
      <point x="17" y="-180" type="curve"/>
      <point x="33" y="-191" type="line"/>
      <point x="51" y="-174"/>
      <point x="81" y="-139"/>
      <point x="81" y="-82" type="curve" smooth="yes"/>
      <point x="81" y="-64"/>
      <point x="67" y="-51"/>
      <point x="51" y="-51" type="curve" smooth="yes"/>
      <point x="34" y="-51"/>
      <point x="20" y="-65"/>
      <point x="20" y="-82" type="curve" smooth="yes" name="hr01"/>
      <point x="20" y="-97"/>
      <point x="31" y="-109"/>
      <point x="46" y="-112" type="curve"/>
      <point x="44" y="-131"/>
      <point x="37" y="-156"/>
    </contour>
  </outline>
</glyph>
<glyph name="Lcaron" format="1">
  <advance width="406"/>
  <unicode hex="013D"/>
  <outline>
    <contour>
      <point x="401" y="45" type="line" name="hr00"/>
      <point x="124" y="45" type="line"/>
      <point x="124" y="635" type="line"/>
      <point x="73" y="635" type="line"/>
      <point x="73" y="0" type="line"/>
      <point x="401" y="0" type="line"/>
    </contour>
    <contour>
      <point x="-18" y="797" type="line"/>
      <point x="99" y="683" type="line"/>
      <point x="218" y="799" type="line"/>
      <point x="183" y="833" type="line"/>
      <point x="99" y="752" type="line"/>
      <point x="17" y="832" type="line"/>
    </contour>
  </outline>
</glyph>
<glyph name="Lslash" format="1">
  <advance width="434"/>
  <unicode hex="0141"/>
  <outline>
    <contour>
      <point x="428" y="45" type="line" name="hr00"/>
      <point x="151" y="45" type="line"/>
      <point x="151" y="338" type="line"/>
      <point x="287" y="399" type="line"/>
      <point x="266" y="444" type="line"/>
      <point x="151" y="392" type="line"/>
      <point x="151" y="635" type="line"/>
      <point x="100" y="635" type="line"/>
      <point x="100" y="369" type="line"/>
      <point x="2" y="325" type="line"/>
      <point x="22" y="280" type="line"/>
      <point x="100" y="315" type="line"/>
      <point x="100" y="0" type="line"/>
      <point x="428" y="0" type="line"/>
    </contour>
  </outline>
</glyph>
<glyph name="lslash" format="1">
  <advance width="291"/>
  <unicode hex="0142"/>
  <outline>
    <contour>
      <point x="20" y="279" type="line" name="hr00"/>
      <point x="116" y="322" type="line"/>
      <point x="116" y="0" type="line"/>
      <point x="167" y="0" type="line"/>
      <point x="167" y="345" type="line"/>
      <point x="285" y="398" type="line"/>
      <point x="264" y="443" type="line"/>
      <point x="167" y="399" type="line"/>
      <point x="167" y="635" type="line"/>
      <point x="116" y="635" type="line"/>
      <point x="116" y="376" type="line"/>
      <point x="0" y="324" type="line"/>
    </contour>
  </outline>
</glyph>
<glyph name="ncommaaccent" format="1">
  <advance width="368"/>
  <unicode hex="0146"/>
  <outline>
    <contour>
      <point x="302" y="311" type="curve" name="hr00"/>
      <point x="302" y="0" type="line"/>
      <point x="352" y="0" type="line"/>
      <point x="352" y="314" type="line" smooth="yes"/>
      <point x="352" y="409"/>
      <point x="294" y="462"/>
      <point x="194" y="462" type="curve" smooth="yes"/>
      <point x="149" y="462"/>
      <point x="103" y="447"/>
      <point x="68" y="423" type="curve"/>
      <point x="68" y="454" type="line"/>
      <point x="17" y="454" type="line"/>
      <point x="17" y="0" type="line"/>
      <point x="68" y="0" type="line"/>
      <point x="68" y="385" type="line"/>
      <point x="105" y="406"/>
      <point x="143" y="416"/>
      <point x="184" y="416" type="curve" smooth="yes"/>
      <point x="242" y="416"/>
      <point x="302" y="393"/>
    </contour>
    <contour>
      <point x="154" y="-180" type="curve"/>
      <point x="170" y="-191" type="line"/>
      <point x="188" y="-174"/>
      <point x="218" y="-139"/>
      <point x="218" y="-82" type="curve" smooth="yes"/>
      <point x="218" y="-64"/>
      <point x="204" y="-51"/>
      <point x="188" y="-51" type="curve" smooth="yes"/>
      <point x="171" y="-51"/>
      <point x="157" y="-65"/>
      <point x="157" y="-82" type="curve" smooth="yes"/>
      <point x="157" y="-97"/>
      <point x="168" y="-109"/>
      <point x="183" y="-112" type="curve"/>
      <point x="180" y="-131"/>
      <point x="174" y="-156"/>
    </contour>
  </outline>
</glyph>
<glyph name="Ohungarumlaut" format="1">
  <advance width="411"/>
  <unicode hex="0150"/>
  <outline>
    <contour>
      <point x="14" y="460" type="curve"/>
      <point x="14" y="168" type="line" smooth="yes"/>
      <point x="14" y="51"/>
      <point x="98" y="-10"/>
      <point x="205" y="-10" type="curve" smooth="yes"/>
      <point x="317" y="-10"/>
      <point x="395" y="58"/>
      <point x="395" y="168" type="curve" smooth="yes"/>
      <point x="395" y="459" type="line" smooth="yes"/>
      <point x="395" y="577"/>
      <point x="326" y="649"/>
      <point x="206" y="649" type="curve" smooth="yes"/>
      <point x="86" y="649"/>
      <point x="14" y="584"/>
    </contour>
    <contour>
      <point x="65" y="169" type="curve"/>
      <point x="65" y="468" type="line" smooth="yes"/>
      <point x="65" y="556"/>
      <point x="120" y="601"/>
      <point x="204" y="601" type="curve" smooth="yes"/>
      <point x="289" y="601"/>
      <point x="345" y="556"/>
      <point x="345" y="468" type="curve" smooth="yes"/>
      <point x="345" y="169" type="line" smooth="yes"/>
      <point x="345" y="80"/>
      <point x="287" y="38"/>
      <point x="204" y="38" type="curve" smooth="yes"/>
      <point x="124" y="38"/>
      <point x="65" y="82"/>
    </contour>
    <contour>
      <point x="163" y="772" type="curve" name="hr01"/>
      <point x="129" y="675" type="line"/>
      <point x="161" y="675" type="line"/>
      <point x="209" y="747" type="line"/>
      <point x="220" y="760"/>
      <point x="219" y="781"/>
      <point x="203" y="790" type="curve" smooth="yes"/>
      <point x="187" y="799"/>
      <point x="168" y="789"/>
    </contour>
    <contour>
      <point x="281" y="772" type="curve"/>
      <point x="247" y="675" type="line"/>
      <point x="279" y="675" type="line"/>
      <point x="327" y="747" type="line"/>
      <point x="339" y="760"/>
      <point x="337" y="781"/>
      <point x="321" y="790" type="curve" smooth="yes"/>
      <point x="305" y="799"/>
      <point x="286" y="789"/>
    </contour>
  </outline>
</glyph>
<glyph name="OE" format="1">
  <advance width="659"/>
  <unicode hex="0152"/>
  <outline>
    <contour>
      <point x="645" y="45" type="line"/>
      <point x="395" y="45" type="line"/>
      <point x="395" y="324" type="line"/>
      <point x="551" y="324" type="line"/>
      <point x="568" y="374" type="line"/>
      <point x="395" y="374" type="line"/>
      <point x="395" y="587" type="line"/>
      <point x="647" y="587" type="line"/>
      <point x="647" y="635" type="line"/>
      <point x="344" y="635" type="line"/>
      <point x="344" y="600" type="line" name="hr01"/>
      <point x="312" y="632"/>
      <point x="265" y="649"/>
      <point x="206" y="649" type="curve" smooth="yes"/>
      <point x="86" y="649"/>
      <point x="14" y="584"/>
      <point x="14" y="460" type="curve" smooth="yes"/>
      <point x="14" y="168" type="line" smooth="yes"/>
      <point x="14" y="51"/>
      <point x="98" y="-10"/>
      <point x="205" y="-10" type="curve" smooth="yes"/>
      <point x="262" y="-10"/>
      <point x="310" y="7"/>
      <point x="344" y="39" type="curve"/>
      <point x="344" y="0" type="line" name="hr02"/>
      <point x="645" y="0" type="line"/>
    </contour>
    <contour>
      <point x="65" y="169" type="curve" name="hr03"/>
      <point x="65" y="468" type="line" smooth="yes"/>
      <point x="65" y="556"/>
      <point x="120" y="601"/>
      <point x="204" y="601" type="curve" smooth="yes"/>
      <point x="282" y="601"/>
      <point x="336" y="562"/>
      <point x="344" y="487" type="curve"/>
      <point x="344" y="149" type="line"/>
      <point x="336" y="74"/>
      <point x="280" y="38"/>
      <point x="204" y="38" type="curve" smooth="yes"/>
      <point x="124" y="38"/>
      <point x="65" y="82"/>
    </contour>
  </outline>
</glyph>
<glyph name="Sacute" format="1">
  <advance width="452"/>
  <unicode hex="015A"/>
  <outline>
    <contour>
      <point x="366" y="562" type="curve" name="hr00"/>
      <point x="383" y="609" type="line"/>
      <point x="340" y="632"/>
      <point x="286" y="644"/>
      <point x="234" y="644" type="curve"/>
      <point x="184" y="643"/>
      <point x="135" y="631"/>
      <point x="99" y="605" type="curve" smooth="yes"/>
      <point x="66" y="581"/>
      <point x="43" y="546"/>
      <point x="41" y="498" type="curve" smooth="yes"/>
      <point x="36" y="407"/>
      <point x="103" y="366"/>
      <point x="179" y="333" type="curve" smooth="yes"/>
      <point x="209" y="320"/>
      <point x="240" y="308"/>
      <point x="269" y="295" type="curve" smooth="yes"/>
      <point x="335" y="266"/>
      <point x="388" y="231"/>
      <point x="384" y="161" type="curve" smooth="yes"/>
      <point x="382" y="128"/>
      <point x="370" y="102"/>
      <point x="352" y="83" type="curve" smooth="yes"/>
      <point x="321" y="51"/>
      <point x="270" y="38"/>
      <point x="220" y="38" type="curve" smooth="yes"/>
      <point x="169" y="38"/>
      <point x="130" y="57"/>
      <point x="104" y="76" type="curve" smooth="yes"/>
      <point x="61" y="109"/>
      <point x="50" y="146"/>
      <point x="50" y="146" type="curve"/>
      <point x="9" y="120" type="line"/>
      <point x="9" y="120"/>
      <point x="26" y="71"/>
      <point x="79" y="32" type="curve" smooth="yes"/>
      <point x="112" y="9"/>
      <point x="159" y="-11"/>
      <point x="224" y="-11" type="curve" smooth="yes"/>
      <point x="283" y="-11"/>
      <point x="342" y="4"/>
      <point x="383" y="39" type="curve" smooth="yes"/>
      <point x="415" y="67"/>
      <point x="437" y="107"/>
      <point x="439" y="163" type="curve" smooth="yes"/>
      <point x="442" y="256"/>
      <point x="372" y="304"/>
      <point x="294" y="339" type="curve" smooth="yes"/>
      <point x="262" y="354"/>
      <point x="228" y="367"/>
      <point x="198" y="380" type="curve" smooth="yes"/>
      <point x="138" y="406"/>
      <point x="90" y="436"/>
      <point x="93" y="492" type="curve" smooth="yes"/>
      <point x="95" y="527"/>
      <point x="111" y="552"/>
      <point x="136" y="568" type="curve" smooth="yes"/>
      <point x="162" y="586"/>
      <point x="198" y="595"/>
      <point x="235" y="595" type="curve" smooth="yes"/>
      <point x="281" y="595"/>
      <point x="329" y="583"/>
    </contour>
    <contour>
      <point x="251" y="772" type="curve"/>
      <point x="217" y="675" type="line"/>
      <point x="249" y="675" type="line"/>
      <point x="297" y="747" type="line"/>
      <point x="309" y="760"/>
      <point x="307" y="781"/>
      <point x="291" y="790" type="curve" smooth="yes"/>
      <point x="275" y="799"/>
      <point x="257" y="789"/>
    </contour>
  </outline>
</glyph>
<glyph name="sacute" format="1">
  <advance width="350"/>
  <unicode hex="015B"/>
  <outline>
    <contour>
      <point x="278" y="399" type="curve"/>
      <point x="299" y="433" type="line"/>
      <point x="253" y="458"/>
      <point x="216" y="466"/>
      <point x="179" y="465" type="curve" smooth="yes"/>
      <point x="144" y="464"/>
      <point x="111" y="455"/>
      <point x="85" y="438" type="curve" smooth="yes"/>
      <point x="51" y="415"/>
      <point x="29" y="379"/>
      <point x="33" y="330" type="curve"/>
      <point x="37" y="295"/>
      <point x="57" y="271"/>
      <point x="83" y="253" type="curve" smooth="yes"/>
      <point x="110" y="235"/>
      <point x="143" y="222"/>
      <point x="175" y="210" type="curve" smooth="yes"/>
      <point x="206" y="198"/>
      <point x="236" y="187"/>
      <point x="257" y="171" type="curve" smooth="yes"/>
      <point x="277" y="156"/>
      <point x="290" y="138"/>
      <point x="289" y="111" type="curve" smooth="yes"/>
      <point x="289" y="87"/>
      <point x="275" y="66"/>
      <point x="255" y="52" type="curve" smooth="yes"/>
      <point x="235" y="39"/>
      <point x="208" y="31"/>
      <point x="179" y="31" type="curve" smooth="yes"/>
      <point x="152" y="31"/>
      <point x="128" y="36"/>
      <point x="107" y="44" type="curve" smooth="yes"/>
      <point x="78" y="56"/>
      <point x="55" y="73"/>
      <point x="37" y="91" type="curve"/>
      <point x="9" y="63" type="line"/>
      <point x="32" y="35"/>
      <point x="59" y="16"/>
      <point x="87" y="4" type="curve" smooth="yes"/>
      <point x="117" y="-9"/>
      <point x="149" y="-14"/>
      <point x="179" y="-15" type="curve" smooth="yes"/>
      <point x="215" y="-16"/>
      <point x="249" y="-7"/>
      <point x="276" y="10" type="curve" smooth="yes"/>
      <point x="314" y="33"/>
      <point x="339" y="72"/>
      <point x="337" y="122" type="curve"/>
      <point x="334" y="155"/>
      <point x="319" y="180"/>
      <point x="298" y="199" type="curve" smooth="yes"/>
      <point x="271" y="223"/>
      <point x="233" y="238"/>
      <point x="197" y="251" type="curve" smooth="yes"/>
      <point x="169" y="262"/>
      <point x="142" y="272"/>
      <point x="120" y="284" type="curve" smooth="yes"/>
      <point x="99" y="296"/>
      <point x="84" y="311"/>
      <point x="80" y="331" type="curve" smooth="yes"/>
      <point x="75" y="363"/>
      <point x="88" y="386"/>
      <point x="110" y="400" type="curve" smooth="yes"/>
      <point x="129" y="413"/>
      <point x="154" y="420"/>
      <point x="182" y="421" type="curve" smooth="yes"/>
      <point x="215" y="422"/>
      <point x="250" y="415"/>
    </contour>
    <contour>
      <point x="193" y="589" type="curve" name="hr01"/>
      <point x="159" y="492" type="line"/>
      <point x="191" y="492" type="line"/>
      <point x="239" y="564" type="line"/>
      <point x="251" y="577"/>
      <point x="249" y="598"/>
      <point x="233" y="607" type="curve" smooth="yes"/>
      <point x="217" y="616"/>
      <point x="199" y="606"/>
    </contour>
  </outline>
</glyph>
<glyph name="Tcommaaccent" format="1">
  <advance width="345"/>
  <unicode hex="0162"/>
  <outline>
    <contour>
      <point x="354" y="635" type="line" name="hr02"/>
      <point x="-11" y="635" type="line"/>
      <point x="-11" y="589" type="line"/>
      <point x="144" y="589" type="line"/>
      <point x="144" y="0" type="line"/>
      <point x="194" y="0" type="line"/>
      <point x="194" y="589" type="line"/>
      <point x="354" y="589" type="line"/>
    </contour>
    <contour>
      <point x="136" y="-180" type="curve"/>
      <point x="152" y="-191" type="line"/>
      <point x="170" y="-174"/>
      <point x="199" y="-139"/>
      <point x="200" y="-82" type="curve"/>
      <point x="199" y="-64"/>
      <point x="186" y="-51"/>
      <point x="169" y="-51" type="curve" smooth="yes"/>
      <point x="152" y="-51"/>
      <point x="139" y="-65"/>
      <point x="139" y="-82" type="curve" smooth="yes" name="hr01"/>
      <point x="139" y="-97"/>
      <point x="150" y="-109"/>
      <point x="164" y="-112" type="curve"/>
      <point x="162" y="-131"/>
      <point x="155" y="-156"/>
    </contour>
  </outline>
</glyph>
<glyph name="tcommaaccent" format="1">
  <advance width="190"/>
  <unicode hex="0163"/>
  <outline>
    <contour>
      <point x="74" y="120" type="curve"/>
      <point x="74" y="406" type="line"/>
      <point x="161" y="406" type="line"/>
      <point x="183" y="454" type="line"/>
      <point x="74" y="454" type="line"/>
      <point x="74" y="635" type="line"/>
      <point x="23" y="635" type="line"/>
      <point x="23" y="120" type="line" smooth="yes"/>
      <point x="23" y="48"/>
      <point x="51" y="7"/>
      <point x="119" y="-12" type="curve"/>
      <point x="134" y="27" type="line"/>
      <point x="94" y="41"/>
      <point x="74" y="72"/>
    </contour>
    <contour>
      <point x="14" y="-180" type="curve" name="hr01"/>
      <point x="30" y="-191" type="line"/>
      <point x="48" y="-174"/>
      <point x="78" y="-139"/>
      <point x="78" y="-82" type="curve" smooth="yes"/>
      <point x="78" y="-64"/>
      <point x="64" y="-51"/>
      <point x="47" y="-51" type="curve" smooth="yes"/>
      <point x="31" y="-51"/>
      <point x="17" y="-65"/>
      <point x="17" y="-82" type="curve" smooth="yes"/>
      <point x="17" y="-97"/>
      <point x="28" y="-109"/>
      <point x="42" y="-112" type="curve"/>
      <point x="40" y="-131"/>
      <point x="33" y="-156"/>
    </contour>
  </outline>
</glyph>
<glyph name="Tcaron" format="1">
  <advance width="345"/>
  <unicode hex="0164"/>
  <outline>
    <contour>
      <point x="354" y="635" type="line" name="hr00"/>
      <point x="-11" y="635" type="line"/>
      <point x="-11" y="589" type="line"/>
      <point x="144" y="589" type="line"/>
      <point x="144" y="0" type="line"/>
      <point x="194" y="0" type="line"/>
      <point x="194" y="589" type="line"/>
      <point x="354" y="589" type="line"/>
    </contour>
    <contour>
      <point x="54" y="790" type="line"/>
      <point x="170" y="676" type="line"/>
      <point x="290" y="791" type="line"/>
      <point x="255" y="826" type="line"/>
      <point x="170" y="745" type="line"/>
      <point x="89" y="824" type="line"/>
    </contour>
  </outline>
</glyph>
<glyph name="Tbar" format="1">
  <advance width="386"/>
  <unicode hex="0166"/>
  <outline>
    <contour>
      <point x="163" y="344" type="line" name="hr00"/>
      <point x="8" y="344" type="line"/>
      <point x="8" y="293" type="line"/>
      <point x="163" y="293" type="line"/>
      <point x="163" y="0" type="line"/>
      <point x="213" y="0" type="line"/>
      <point x="213" y="293" type="line"/>
      <point x="371" y="293" type="line"/>
      <point x="371" y="344" type="line"/>
      <point x="213" y="344" type="line"/>
      <point x="213" y="589" type="line"/>
      <point x="373" y="589" type="line"/>
      <point x="373" y="635" type="line"/>
      <point x="8" y="635" type="line"/>
      <point x="8" y="589" type="line"/>
      <point x="163" y="589" type="line"/>
    </contour>
  </outline>
</glyph>
<glyph name="tbar" format="1">
  <advance width="230"/>
  <unicode hex="0167"/>
  <outline>
    <contour>
      <point x="109" y="275" type="line" name="hr00"/>
      <point x="217" y="275" type="line"/>
      <point x="217" y="323" type="line"/>
      <point x="109" y="323" type="line"/>
      <point x="109" y="406" type="line"/>
      <point x="196" y="406" type="line"/>
      <point x="218" y="454" type="line"/>
      <point x="109" y="454" type="line"/>
      <point x="109" y="635" type="line"/>
      <point x="58" y="635" type="line"/>
      <point x="58" y="323" type="line"/>
      <point x="8" y="323" type="line"/>
      <point x="8" y="275" type="line"/>
      <point x="58" y="275" type="line"/>
      <point x="58" y="120" type="line" smooth="yes"/>
      <point x="58" y="48"/>
      <point x="86" y="7"/>
      <point x="154" y="-12" type="curve"/>
      <point x="169" y="27" type="line"/>
      <point x="129" y="41"/>
      <point x="109" y="72"/>
      <point x="109" y="120" type="curve" smooth="yes"/>
    </contour>
  </outline>
</glyph>
<glyph name="Ubreve" format="1">
  <advance width="414"/>
  <unicode hex="016C"/>
  <outline>
    <contour>
      <point x="396" y="168" type="curve" name="hr00"/>
      <point x="396" y="635" type="line"/>
      <point x="346" y="635" type="line"/>
      <point x="346" y="169" type="line" smooth="yes"/>
      <point x="346" y="127"/>
      <point x="333" y="96"/>
      <point x="311" y="74" type="curve" smooth="yes"/>
      <point x="286" y="49"/>
      <point x="250" y="38"/>
      <point x="206" y="38" type="curve" smooth="yes"/>
      <point x="168" y="38"/>
      <point x="134" y="48"/>
      <point x="110" y="67" type="curve" smooth="yes"/>
      <point x="82" y="89"/>
      <point x="66" y="123"/>
      <point x="66" y="169" type="curve" smooth="yes"/>
      <point x="66" y="635" type="line"/>
      <point x="16" y="635" type="line"/>
      <point x="16" y="168" type="line" smooth="yes"/>
      <point x="16" y="107"/>
      <point x="35" y="62"/>
      <point x="72" y="33" type="curve" smooth="yes"/>
      <point x="110" y="4"/>
      <point x="155" y="-10"/>
      <point x="207" y="-10" type="curve" smooth="yes"/>
      <point x="258" y="-10"/>
      <point x="303" y="4"/>
      <point x="340" y="33" type="curve" smooth="yes"/>
      <point x="377" y="62"/>
      <point x="396" y="107"/>
    </contour>
    <contour>
      <point x="309" y="779" type="curve"/>
      <point x="309" y="785" type="line"/>
      <point x="268" y="785" type="line"/>
      <point x="268" y="779" type="line" smooth="yes"/>
      <point x="268" y="744"/>
      <point x="241" y="717"/>
      <point x="207" y="717" type="curve" smooth="yes"/>
      <point x="173" y="717"/>
      <point x="145" y="744"/>
      <point x="145" y="779" type="curve" smooth="yes"/>
      <point x="145" y="785" type="line"/>
      <point x="103" y="785" type="line"/>
      <point x="103" y="779" type="line" smooth="yes"/>
      <point x="103" y="722"/>
      <point x="150" y="676"/>
      <point x="206" y="676" type="curve" smooth="yes"/>
      <point x="263" y="676"/>
      <point x="309" y="722"/>
    </contour>
  </outline>
</glyph>
<glyph name="uring" format="1">
  <advance width="366"/>
  <unicode hex="016F"/>
  <outline>
    <contour>
      <point x="298" y="44" type="curve"/>
      <point x="298" y="0" type="line" name="hr01"/>
      <point x="349" y="0" type="line"/>
      <point x="349" y="454" type="line"/>
      <point x="298" y="454" type="line"/>
      <point x="298" y="156" type="line" smooth="yes"/>
      <point x="298" y="92"/>
      <point x="247" y="40"/>
      <point x="183" y="40" type="curve" smooth="yes" name="hr02"/>
      <point x="125" y="40"/>
      <point x="65" y="62"/>
      <point x="65" y="145" type="curve" smooth="yes"/>
      <point x="65" y="454" type="line"/>
      <point x="14" y="454" type="line"/>
      <point x="14" y="142" type="line" smooth="yes"/>
      <point x="14" y="39"/>
      <point x="71" y="-9"/>
      <point x="172" y="-9" type="curve" smooth="yes"/>
      <point x="217" y="-9"/>
      <point x="267" y="8"/>
    </contour>
    <contour>
      <point x="182" y="661" type="curve" smooth="yes" name="hr03"/>
      <point x="125" y="661"/>
      <point x="78" y="615"/>
      <point x="78" y="558" type="curve" smooth="yes"/>
      <point x="78" y="501"/>
      <point x="125" y="454"/>
      <point x="182" y="454" type="curve" smooth="yes"/>
      <point x="239" y="454"/>
      <point x="285" y="501"/>
      <point x="285" y="558" type="curve" smooth="yes"/>
      <point x="285" y="615"/>
      <point x="239" y="661"/>
    </contour>
    <contour>
      <point x="182" y="621" type="curve" smooth="yes"/>
      <point x="217" y="621"/>
      <point x="245" y="593"/>
      <point x="245" y="558" type="curve" smooth="yes"/>
      <point x="245" y="523"/>
      <point x="217" y="494"/>
      <point x="182" y="494" type="curve" smooth="yes"/>
      <point x="147" y="494"/>
      <point x="118" y="523"/>
      <point x="118" y="558" type="curve" smooth="yes"/>
      <point x="118" y="593"/>
      <point x="147" y="621"/>
    </contour>
  </outline>
</glyph>
<glyph name="Uogonek" format="1">
  <advance width="415"/>
  <unicode hex="0172"/>
  <outline>
    <contour>
      <point x="397" y="168" type="curve" name="hr02"/>
      <point x="397" y="635" type="line"/>
      <point x="347" y="635" type="line"/>
      <point x="347" y="169" type="line" smooth="yes"/>
      <point x="347" y="127"/>
      <point x="334" y="96"/>
      <point x="312" y="74" type="curve" smooth="yes"/>
      <point x="287" y="49"/>
      <point x="251" y="38"/>
      <point x="207" y="38" type="curve" smooth="yes"/>
      <point x="169" y="38"/>
      <point x="135" y="48"/>
      <point x="111" y="67" type="curve" smooth="yes"/>
      <point x="83" y="89"/>
      <point x="67" y="123"/>
      <point x="67" y="169" type="curve" smooth="yes"/>
      <point x="67" y="635" type="line"/>
      <point x="17" y="635" type="line"/>
      <point x="17" y="168" type="line" smooth="yes"/>
      <point x="17" y="107"/>
      <point x="36" y="62"/>
      <point x="73" y="33" type="curve" smooth="yes"/>
      <point x="111" y="4"/>
      <point x="156" y="-10"/>
      <point x="208" y="-10" type="curve" smooth="yes"/>
      <point x="259" y="-10"/>
      <point x="304" y="4"/>
      <point x="341" y="33" type="curve" smooth="yes"/>
      <point x="378" y="62"/>
      <point x="397" y="107"/>
    </contour>
    <contour>
      <point x="164" y="-123" type="curve"/>
      <point x="228" y="-10" type="line" name="hr01"/>
      <point x="228" y="-3" type="line"/>
      <point x="188" y="-5" type="line"/>
      <point x="188" y="-10" type="line"/>
      <point x="131" y="-111" type="line"/>
      <point x="93" y="-176"/>
      <point x="138" y="-240"/>
      <point x="218" y="-217" type="curve" smooth="yes"/>
      <point x="235" y="-212"/>
      <point x="311" y="-185"/>
      <point x="313" y="-185" type="curve"/>
      <point x="297" y="-148" type="line"/>
      <point x="297" y="-148"/>
      <point x="258" y="-162"/>
      <point x="209" y="-179" type="curve" smooth="yes"/>
      <point x="164" y="-195"/>
      <point x="140" y="-166"/>
    </contour>
  </outline>
</glyph>
<glyph name="Zdotaccent" format="1">
  <advance width="464"/>
  <unicode hex="017B"/>
  <outline>
    <contour>
      <point x="22" y="588" type="line" name="hr00"/>
      <point x="382" y="588" type="line"/>
      <point x="11" y="45" type="line"/>
      <point x="11" y="0" type="line"/>
      <point x="452" y="0" type="line"/>
      <point x="452" y="46" type="line"/>
      <point x="75" y="46" type="line"/>
      <point x="447" y="589" type="line"/>
      <point x="447" y="635" type="line"/>
      <point x="22" y="635" type="line"/>
    </contour>
    <contour>
      <point x="262" y="729" type="curve" smooth="yes"/>
      <point x="262" y="746"/>
      <point x="248" y="759"/>
      <point x="231" y="759" type="curve" smooth="yes"/>
      <point x="214" y="759"/>
      <point x="201" y="746"/>
      <point x="201" y="729" type="curve" smooth="yes"/>
      <point x="201" y="712"/>
      <point x="214" y="698"/>
      <point x="231" y="698" type="curve" smooth="yes"/>
      <point x="248" y="698"/>
      <point x="262" y="712"/>
    </contour>
  </outline>
</glyph>
<glyph name="zdotaccent" format="1">
  <advance width="355"/>
  <unicode hex="017C"/>
  <outline>
    <contour>
      <point x="20" y="408" type="line" name="hr00"/>
      <point x="261" y="408" type="line"/>
      <point x="12" y="45" type="line"/>
      <point x="12" y="0" type="line"/>
      <point x="345" y="0" type="line"/>
      <point x="345" y="46" type="line"/>
      <point x="75" y="46" type="line"/>
      <point x="326" y="409" type="line"/>
      <point x="326" y="454" type="line"/>
      <point x="20" y="454" type="line"/>
    </contour>
    <contour>
      <point x="208" y="548" type="curve" smooth="yes"/>
      <point x="208" y="565"/>
      <point x="194" y="578"/>
      <point x="178" y="578" type="curve" smooth="yes"/>
      <point x="161" y="578"/>
      <point x="147" y="565"/>
      <point x="147" y="548" type="curve" smooth="yes"/>
      <point x="147" y="531"/>
      <point x="161" y="517"/>
      <point x="178" y="517" type="curve" smooth="yes"/>
      <point x="194" y="517"/>
      <point x="208" y="531"/>
    </contour>
  </outline>
</glyph>
<glyph name="caron" format="1">
  <advance width="380"/>
  <unicode hex="02C7"/>
  <outline>
    <contour>
      <point x="290" y="650" type="line" name="hr00"/>
      <point x="255" y="684" type="line"/>
      <point x="170" y="603" type="line"/>
      <point x="89" y="683" type="line"/>
      <point x="54" y="648" type="line"/>
      <point x="170" y="534" type="line"/>
    </contour>
  </outline>
</glyph>
<glyph name="dotaccent" format="1">
  <advance width="187"/>
  <unicode hex="02D9"/>
  <outline>
    <contour>
      <point x="26" y="680" type="curve" smooth="yes" name="hr00"/>
      <point x="9" y="680"/>
      <point x="-4" y="666"/>
      <point x="-4" y="649" type="curve" smooth="yes"/>
      <point x="-4" y="633"/>
      <point x="9" y="619"/>
      <point x="26" y="619" type="curve" smooth="yes"/>
      <point x="43" y="619"/>
      <point x="56" y="633"/>
      <point x="56" y="649" type="curve" smooth="yes"/>
      <point x="56" y="666"/>
      <point x="43" y="680"/>
    </contour>
  </outline>
</glyph>
<glyph name="Alpha" format="1">
  <advance width="467"/>
  <unicode hex="0391"/>
  <outline>
    <contour>
      <point x="208" y="635" type="line" name="hr00"/>
      <point x="5" y="0" type="line"/>
      <point x="59" y="0" type="line"/>
      <point x="130" y="222" type="line"/>
      <point x="336" y="222" type="line"/>
      <point x="409" y="0" type="line"/>
      <point x="463" y="0" type="line"/>
      <point x="256" y="635" type="line"/>
    </contour>
    <contour>
      <point x="323" y="272" type="line"/>
      <point x="144" y="272" type="line"/>
      <point x="232" y="556" type="line"/>
    </contour>
  </outline>
</glyph>
<glyph name="Beta" format="1">
  <advance width="425"/>
  <unicode hex="0392"/>
  <outline>
    <contour>
      <point x="220" y="635" type="curve" name="hr02"/>
      <point x="20" y="635" type="line"/>
      <point x="20" y="0" type="line"/>
      <point x="229" y="0" type="line" smooth="yes"/>
      <point x="298" y="0"/>
      <point x="350" y="24"/>
      <point x="376" y="63" type="curve" smooth="yes"/>
      <point x="400" y="99"/>
      <point x="413" y="141"/>
      <point x="413" y="189" type="curve" smooth="yes"/>
      <point x="413" y="276"/>
      <point x="373" y="330"/>
      <point x="319" y="354" type="curve"/>
      <point x="319" y="355" type="line"/>
      <point x="319" y="356"/>
      <point x="320" y="356"/>
      <point x="320" y="357" type="curve"/>
      <point x="360" y="384"/>
      <point x="380" y="424"/>
      <point x="380" y="478" type="curve" smooth="yes" name="hr01"/>
      <point x="380" y="531"/>
      <point x="366" y="571"/>
      <point x="337" y="596" type="curve"/>
      <point x="309" y="622"/>
      <point x="270" y="635"/>
    </contour>
    <contour>
      <point x="219" y="374" type="curve"/>
      <point x="71" y="374" type="line"/>
      <point x="71" y="586" type="line"/>
      <point x="213" y="586" type="line" smooth="yes"/>
      <point x="289" y="586"/>
      <point x="327" y="551"/>
      <point x="327" y="480" type="curve" smooth="yes" name="hr03"/>
      <point x="327" y="453"/>
      <point x="321" y="430"/>
      <point x="309" y="413" type="curve" smooth="yes"/>
      <point x="291" y="387"/>
      <point x="260" y="374"/>
    </contour>
    <contour>
      <point x="227" y="48" type="curve"/>
      <point x="71" y="48" type="line"/>
      <point x="71" y="324" type="line"/>
      <point x="242" y="324" type="line" smooth="yes"/>
      <point x="305" y="324"/>
      <point x="358" y="277"/>
      <point x="358" y="193" type="curve" smooth="yes"/>
      <point x="358" y="96"/>
      <point x="315" y="48"/>
    </contour>
  </outline>
</glyph>
<glyph name="Zeta" format="1">
  <advance width="465"/>
  <unicode hex="0396"/>
  <outline>
    <contour>
      <point x="23" y="588" type="line" name="hr00"/>
      <point x="383" y="588" type="line"/>
      <point x="11" y="45" type="line"/>
      <point x="11" y="0" type="line"/>
      <point x="453" y="0" type="line"/>
      <point x="453" y="46" type="line"/>
      <point x="76" y="46" type="line"/>
      <point x="447" y="589" type="line"/>
      <point x="447" y="635" type="line"/>
      <point x="23" y="635" type="line"/>
    </contour>
  </outline>
</glyph>
<glyph name="Lambda" format="1">
  <advance width="467"/>
  <unicode hex="039B"/>
  <outline>
    <contour>
      <point x="463" y="0" type="line" name="hr00"/>
      <point x="256" y="635" type="line"/>
      <point x="208" y="635" type="line"/>
      <point x="5" y="0" type="line"/>
      <point x="59" y="0" type="line"/>
      <point x="232" y="556" type="line"/>
      <point x="408" y="0" type="line"/>
    </contour>
  </outline>
</glyph>
<glyph name="Mu" format="1">
  <advance width="527"/>
  <unicode hex="039C"/>
  <outline>
    <contour>
      <point x="20" y="0" type="line"/>
      <point x="71" y="0" type="line"/>
      <point x="71" y="485" type="line"/>
      <point x="235" y="0" type="line"/>
      <point x="290" y="0" type="line"/>
      <point x="455" y="485" type="line"/>
      <point x="455" y="0" type="line"/>
      <point x="506" y="0" type="line"/>
      <point x="506" y="635" type="line"/>
      <point x="455" y="635" type="line"/>
      <point x="262" y="78" type="line" name="hr01"/>
      <point x="71" y="635" type="line"/>
      <point x="20" y="635" type="line"/>
    </contour>
  </outline>
</glyph>
<glyph name="Tau" format="1">
  <advance width="345"/>
  <unicode hex="03A4"/>
  <outline>
    <contour>
      <point x="354" y="635" type="line" name="hr00"/>
      <point x="-11" y="635" type="line"/>
      <point x="-11" y="589" type="line"/>
      <point x="143" y="589" type="line"/>
      <point x="143" y="0" type="line"/>
      <point x="194" y="0" type="line"/>
      <point x="194" y="589" type="line"/>
      <point x="354" y="589" type="line"/>
    </contour>
  </outline>
</glyph>
<glyph name="Upsilon" format="1">
  <advance width="432"/>
  <unicode hex="03A5"/>
  <outline>
    <contour>
      <point x="413" y="141" type="curve" name="hr00"/>
      <point x="413" y="635" type="line"/>
      <point x="362" y="635" type="line"/>
      <point x="362" y="384" type="line" smooth="yes"/>
      <point x="362" y="345"/>
      <point x="339" y="308"/>
      <point x="304" y="290" type="curve" smooth="yes"/>
      <point x="279" y="278"/>
      <point x="247" y="272"/>
      <point x="210" y="272" type="curve" smooth="yes"/>
      <point x="169" y="272"/>
      <point x="134" y="282"/>
      <point x="104" y="304" type="curve"/>
      <point x="75" y="327"/>
      <point x="62" y="359"/>
      <point x="62" y="410" type="curve" smooth="yes"/>
      <point x="62" y="635" type="line"/>
      <point x="11" y="635" type="line"/>
      <point x="11" y="420" type="line" smooth="yes"/>
      <point x="11" y="346"/>
      <point x="29" y="300"/>
      <point x="67" y="268" type="curve" smooth="yes"/>
      <point x="104" y="236"/>
      <point x="155" y="219"/>
      <point x="218" y="222" type="curve" smooth="yes"/>
      <point x="301" y="227"/>
      <point x="345" y="259"/>
      <point x="362" y="277" type="curve"/>
      <point x="362" y="138" type="line" smooth="yes"/>
      <point x="362" y="78"/>
      <point x="344" y="41"/>
      <point x="306" y="27" type="curve"/>
      <point x="318" y="-6" type="line"/>
      <point x="379" y="2"/>
      <point x="413" y="53"/>
    </contour>
  </outline>
</glyph>
<glyph name="Phi" format="1">
  <advance width="506"/>
  <unicode hex="03A6"/>
  <outline>
    <contour>
      <point x="147" y="599" type="curve" name="hr00"/>
      <point x="120" y="640" type="line"/>
      <point x="50" y="617"/>
      <point x="14" y="560"/>
      <point x="14" y="469" type="curve" smooth="yes"/>
      <point x="14" y="204" type="line" smooth="yes"/>
      <point x="14" y="94"/>
      <point x="70" y="27"/>
      <point x="186" y="27" type="curve" smooth="yes"/>
      <point x="225" y="27" type="line"/>
      <point x="225" y="-25" type="line"/>
      <point x="277" y="-32" type="line"/>
      <point x="277" y="27" type="line"/>
      <point x="322" y="27" type="line" smooth="yes"/>
      <point x="438" y="27"/>
      <point x="491" y="94"/>
      <point x="491" y="204" type="curve" smooth="yes"/>
      <point x="491" y="463" type="line" smooth="yes"/>
      <point x="491" y="520"/>
      <point x="474" y="566"/>
      <point x="443" y="598" type="curve" smooth="yes"/>
      <point x="414" y="627"/>
      <point x="374" y="644"/>
      <point x="323" y="644" type="curve" smooth="yes"/>
      <point x="266" y="644"/>
      <point x="229" y="609"/>
      <point x="225" y="548" type="curve"/>
      <point x="225" y="72" type="line"/>
      <point x="186" y="72" type="line" smooth="yes"/>
      <point x="113" y="72"/>
      <point x="65" y="115"/>
      <point x="65" y="195" type="curve" smooth="yes"/>
      <point x="65" y="469" type="line" smooth="yes"/>
      <point x="65" y="542"/>
      <point x="93" y="586"/>
    </contour>
    <contour>
      <point x="322" y="72" type="curve"/>
      <point x="277" y="72" type="line"/>
      <point x="277" y="540" type="line" smooth="yes"/>
      <point x="277" y="577"/>
      <point x="295" y="596"/>
      <point x="330" y="596" type="curve" smooth="yes"/>
      <point x="358" y="596"/>
      <point x="385" y="586"/>
      <point x="407" y="565" type="curve" smooth="yes"/>
      <point x="431" y="544"/>
      <point x="443" y="513"/>
      <point x="443" y="472" type="curve" smooth="yes"/>
      <point x="443" y="195" type="line" smooth="yes"/>
      <point x="443" y="115"/>
      <point x="395" y="72"/>
    </contour>
  </outline>
</glyph>
<glyph name="epsilontonos" format="1">
  <advance width="331"/>
  <unicode hex="03AD"/>
  <outline>
    <contour>
      <point x="259" y="403" type="curve" name="hr04"/>
      <point x="259" y="450" type="line"/>
      <point x="224" y="459"/>
      <point x="193" y="463"/>
      <point x="166" y="463" type="curve" smooth="yes"/>
      <point x="65" y="463"/>
      <point x="27" y="401"/>
      <point x="28" y="344" type="curve" smooth="yes" name="hr01"/>
      <point x="29" y="305"/>
      <point x="48" y="269"/>
      <point x="78" y="253" type="curve"/>
      <point x="31" y="233"/>
      <point x="10" y="186"/>
      <point x="10" y="137" type="curve" smooth="yes" name="hr02"/>
      <point x="10" y="63"/>
      <point x="64" y="-10"/>
      <point x="169" y="-10" type="curve" smooth="yes"/>
      <point x="222" y="-10"/>
      <point x="280" y="2"/>
      <point x="323" y="21" type="curve"/>
      <point x="308" y="67" type="line"/>
      <point x="265" y="50"/>
      <point x="219" y="38"/>
      <point x="178" y="37" type="curve" smooth="yes"/>
      <point x="112" y="36"/>
      <point x="61" y="78"/>
      <point x="61" y="132" type="curve" smooth="yes"/>
      <point x="61" y="200"/>
      <point x="120" y="224"/>
      <point x="152" y="224" type="curve" smooth="yes"/>
      <point x="161" y="224"/>
      <point x="232" y="224"/>
      <point x="241" y="224" type="curve"/>
      <point x="259" y="273" type="line"/>
      <point x="151" y="273" type="line" smooth="yes" name="hr03"/>
      <point x="109" y="273"/>
      <point x="81" y="310"/>
      <point x="81" y="346" type="curve" smooth="yes"/>
      <point x="81" y="377"/>
      <point x="100" y="407"/>
      <point x="148" y="414" type="curve" smooth="yes"/>
      <point x="177" y="418"/>
      <point x="203" y="421"/>
    </contour>
    <contour>
      <point x="187" y="595" type="curve" name="hr05"/>
      <point x="153" y="498" type="line"/>
      <point x="185" y="498" type="line"/>
      <point x="233" y="570" type="line"/>
      <point x="245" y="583"/>
      <point x="243" y="604"/>
      <point x="227" y="613" type="curve" smooth="yes"/>
      <point x="211" y="622"/>
      <point x="193" y="612"/>
    </contour>
  </outline>
</glyph>
<glyph name="delta" format="1">
  <advance width="361"/>
  <unicode hex="03B4"/>
  <outline>
    <contour>
      <point x="204" y="592" type="curve" name="hr00"/>
      <point x="288" y="592" type="line"/>
      <point x="308" y="635" type="line"/>
      <point x="206" y="635" type="line"/>
      <point x="141" y="638"/>
      <point x="102" y="594"/>
      <point x="99" y="543" type="curve" smooth="yes"/>
      <point x="98" y="520"/>
      <point x="106" y="492"/>
      <point x="135" y="464" type="curve" smooth="yes"/>
      <point x="138" y="461"/>
      <point x="140" y="459"/>
      <point x="143" y="456" type="curve"/>
      <point x="131" y="453"/>
      <point x="88" y="442"/>
      <point x="59" y="415" type="curve" smooth="yes"/>
      <point x="28" y="385"/>
      <point x="10" y="339"/>
      <point x="10" y="280" type="curve" smooth="yes"/>
      <point x="10" y="166" type="line" smooth="yes"/>
      <point x="10" y="56"/>
      <point x="65" y="-10"/>
      <point x="180" y="-10" type="curve" smooth="yes"/>
      <point x="292" y="-10"/>
      <point x="348" y="49"/>
      <point x="348" y="166" type="curve" smooth="yes"/>
      <point x="348" y="254" type="line" smooth="yes"/>
      <point x="348" y="292"/>
      <point x="339" y="334"/>
      <point x="319" y="365" type="curve" smooth="yes"/>
      <point x="294" y="404"/>
      <point x="271" y="421"/>
      <point x="243" y="441" type="curve" smooth="yes"/>
      <point x="228" y="451"/>
      <point x="198" y="473"/>
      <point x="194" y="476" type="curve" smooth="yes"/>
      <point x="169" y="496"/>
      <point x="148" y="507"/>
      <point x="148" y="544" type="curve" smooth="yes"/>
      <point x="148" y="573"/>
      <point x="171" y="592"/>
    </contour>
    <contour>
      <point x="297" y="267" type="curve"/>
      <point x="297" y="157" type="line" smooth="yes"/>
      <point x="297" y="76"/>
      <point x="258" y="35"/>
      <point x="181" y="35" type="curve" smooth="yes"/>
      <point x="108" y="35"/>
      <point x="61" y="77"/>
      <point x="61" y="157" type="curve" smooth="yes"/>
      <point x="61" y="280" type="line" smooth="yes"/>
      <point x="61" y="324"/>
      <point x="72" y="358"/>
      <point x="94" y="380" type="curve" smooth="yes"/>
      <point x="133" y="421"/>
      <point x="192" y="421"/>
      <point x="192" y="421" type="curve"/>
      <point x="200" y="415"/>
      <point x="208" y="411"/>
      <point x="215" y="406" type="curve" smooth="yes"/>
      <point x="262" y="375"/>
      <point x="297" y="327"/>
    </contour>
  </outline>
</glyph>
<glyph name="nu" format="1">
  <advance width="355"/>
  <unicode hex="03BD"/>
  <outline>
    <contour>
      <point x="209" y="0" type="line" name="hr00"/>
      <point x="350" y="454" type="line"/>
      <point x="296" y="454" type="line"/>
      <point x="175" y="53" type="line"/>
      <point x="54" y="454" type="line"/>
      <point x="1" y="454" type="line"/>
      <point x="139" y="0" type="line"/>
    </contour>
  </outline>
</glyph>
<glyph name="xi" format="1">
  <advance width="360"/>
  <unicode hex="03BE"/>
  <outline>
    <contour>
      <point x="312" y="590" type="curve" name="hr06"/>
      <point x="332" y="636" type="line"/>
      <point x="332" y="636"/>
      <point x="251" y="636"/>
      <point x="199" y="636" type="curve" smooth="yes"/>
      <point x="115" y="636"/>
      <point x="66" y="577"/>
      <point x="69" y="496" type="curve" smooth="yes" name="hr01"/>
      <point x="71" y="458"/>
      <point x="79" y="412"/>
      <point x="130" y="367" type="curve"/>
      <point x="128" y="367"/>
      <point x="126" y="367"/>
      <point x="123" y="367" type="curve" smooth="yes"/>
      <point x="58" y="362"/>
      <point x="11" y="324"/>
      <point x="11" y="231" type="curve" smooth="yes" name="hr02"/>
      <point x="11" y="205"/>
      <point x="11" y="179"/>
      <point x="11" y="153" type="curve" smooth="yes"/>
      <point x="11" y="19"/>
      <point x="89" y="-13"/>
      <point x="206" y="-9" type="curve" smooth="yes"/>
      <point x="230" y="-8"/>
      <point x="268" y="-6"/>
      <point x="298" y="-4" type="curve" name="hr03"/>
      <point x="298" y="-179" type="line"/>
      <point x="349" y="-192" type="line"/>
      <point x="349" y="46" type="line" name="hr04"/>
      <point x="325" y="44"/>
      <point x="237" y="37"/>
      <point x="204" y="35" type="curve" smooth="yes"/>
      <point x="82" y="30"/>
      <point x="62" y="73"/>
      <point x="62" y="159" type="curve" smooth="yes"/>
      <point x="62" y="177"/>
      <point x="62" y="207"/>
      <point x="62" y="228" type="curve" smooth="yes"/>
      <point x="62" y="310"/>
      <point x="116" y="325"/>
      <point x="149" y="325" type="curve" smooth="yes"/>
      <point x="206" y="325"/>
      <point x="247" y="315"/>
      <point x="247" y="315" type="curve"/>
      <point x="252" y="330"/>
      <point x="258" y="344"/>
      <point x="263" y="359" type="curve"/>
      <point x="263" y="359"/>
      <point x="243" y="364"/>
      <point x="234" y="366" type="curve" smooth="yes"/>
      <point x="159" y="383"/>
      <point x="126" y="434"/>
      <point x="121" y="494" type="curve" name="hr05"/>
      <point x="119" y="552"/>
      <point x="150" y="590"/>
      <point x="202" y="590" type="curve" smooth="yes"/>
      <point x="235" y="590"/>
      <point x="312" y="590"/>
    </contour>
  </outline>
</glyph>
<glyph name="rho" format="1">
  <advance width="363"/>
  <unicode hex="03C1"/>
  <outline>
    <contour>
      <point x="350" y="155" type="curve" name="hr00"/>
      <point x="350" y="282" type="line" smooth="yes"/>
      <point x="350" y="392"/>
      <point x="292" y="460"/>
      <point x="184" y="460" type="curve" smooth="yes"/>
      <point x="76" y="460"/>
      <point x="15" y="397"/>
      <point x="15" y="282" type="curve" smooth="yes"/>
      <point x="15" y="-186" type="line"/>
      <point x="66" y="-198" type="line"/>
      <point x="66" y="51" type="line"/>
      <point x="87" y="13"/>
      <point x="140" y="-16"/>
      <point x="196" y="-16" type="curve" smooth="yes"/>
      <point x="296" y="-16"/>
      <point x="350" y="43"/>
    </contour>
    <contour>
      <point x="299" y="282" type="curve"/>
      <point x="299" y="147" type="line" smooth="yes"/>
      <point x="299" y="71"/>
      <point x="261" y="32"/>
      <point x="192" y="32" type="curve" smooth="yes"/>
      <point x="123" y="32"/>
      <point x="66" y="75"/>
      <point x="66" y="152" type="curve" smooth="yes"/>
      <point x="66" y="282" type="line" smooth="yes"/>
      <point x="66" y="370"/>
      <point x="106" y="413"/>
      <point x="186" y="413" type="curve" smooth="yes"/>
      <point x="263" y="413"/>
      <point x="299" y="370"/>
    </contour>
  </outline>
</glyph>
<glyph name="sigma" format="1">
  <advance width="394"/>
  <unicode hex="03C3"/>
  <outline>
    <contour>
      <point x="387" y="468" type="curve" name="hr00"/>
      <point x="357" y="492" type="line"/>
      <point x="338" y="472"/>
      <point x="308" y="458"/>
      <point x="289" y="456" type="curve" smooth="yes"/>
      <point x="264" y="453"/>
      <point x="223" y="464"/>
      <point x="179" y="464" type="curve" smooth="yes"/>
      <point x="99" y="464"/>
      <point x="10" y="425"/>
      <point x="10" y="290" type="curve" smooth="yes"/>
      <point x="10" y="167" type="line" smooth="yes"/>
      <point x="10" y="68"/>
      <point x="68" y="-9"/>
      <point x="181" y="-9" type="curve" smooth="yes"/>
      <point x="293" y="-9"/>
      <point x="345" y="65"/>
      <point x="345" y="167" type="curve" smooth="yes"/>
      <point x="345" y="290" type="line" smooth="yes"/>
      <point x="345" y="356"/>
      <point x="329" y="391"/>
      <point x="312" y="410" type="curve"/>
      <point x="339" y="417"/>
      <point x="365" y="435"/>
    </contour>
    <contour>
      <point x="294" y="303" type="curve"/>
      <point x="294" y="158" type="line" smooth="yes"/>
      <point x="294" y="84"/>
      <point x="257" y="36"/>
      <point x="182" y="36" type="curve" smooth="yes"/>
      <point x="109" y="36"/>
      <point x="64" y="85"/>
      <point x="64" y="158" type="curve" smooth="yes"/>
      <point x="64" y="296" type="line" smooth="yes"/>
      <point x="64" y="389"/>
      <point x="126" y="415"/>
      <point x="179" y="415" type="curve" smooth="yes"/>
      <point x="207" y="415"/>
      <point x="237" y="408"/>
      <point x="263" y="406" type="curve"/>
      <point x="277" y="391"/>
      <point x="294" y="360"/>
    </contour>
  </outline>
</glyph>
<glyph name="tau" format="1">
  <advance width="285"/>
  <unicode hex="03C4"/>
  <outline>
    <contour>
      <point x="162" y="120" type="curve" name="hr00"/>
      <point x="162" y="405" type="line"/>
      <point x="277" y="405" type="line"/>
      <point x="277" y="453" type="line"/>
      <point x="2" y="453" type="line"/>
      <point x="2" y="405" type="line"/>
      <point x="111" y="405" type="line"/>
      <point x="111" y="120" type="line" smooth="yes"/>
      <point x="111" y="48"/>
      <point x="139" y="7"/>
      <point x="207" y="-12" type="curve"/>
      <point x="222" y="27" type="line"/>
      <point x="182" y="41"/>
      <point x="162" y="72"/>
    </contour>
  </outline>
</glyph>
<glyph name="upsilon" format="1">
  <advance width="363"/>
  <unicode hex="03C5"/>
  <outline>
    <contour>
      <point x="349" y="167" type="curve" name="hr00"/>
      <point x="349" y="454" type="line"/>
      <point x="300" y="454" type="line"/>
      <point x="300" y="158" type="line" smooth="yes"/>
      <point x="300" y="84"/>
      <point x="261" y="36"/>
      <point x="185" y="36" type="curve" smooth="yes"/>
      <point x="112" y="36"/>
      <point x="65" y="85"/>
      <point x="65" y="158" type="curve" smooth="yes"/>
      <point x="65" y="454" type="line"/>
      <point x="13" y="454" type="line"/>
      <point x="13" y="167" type="line" smooth="yes"/>
      <point x="13" y="68"/>
      <point x="71" y="-9"/>
      <point x="184" y="-9" type="curve" smooth="yes"/>
      <point x="296" y="-9"/>
      <point x="349" y="65"/>
    </contour>
  </outline>
</glyph>
<glyph name="trademark" format="1">
  <advance width="370"/>
  <unicode hex="2122"/>
  <outline>
    <contour>
      <point x="166" y="465" type="line"/>
      <point x="197" y="465" type="line"/>
      <point x="197" y="592" type="line"/>
      <point x="250" y="465" type="line"/>
      <point x="269" y="465" type="line"/>
      <point x="323" y="592" type="line"/>
      <point x="323" y="465" type="line"/>
      <point x="351" y="465" type="line"/>
      <point x="351" y="635" type="line"/>
      <point x="313" y="635" type="line"/>
      <point x="260" y="510" type="line"/>
      <point x="205" y="635" type="line" name="hr01"/>
      <point x="15" y="635" type="line"/>
      <point x="15" y="604" type="line"/>
      <point x="79" y="604" type="line"/>
      <point x="79" y="465" type="line"/>
      <point x="109" y="465" type="line"/>
      <point x="109" y="604" type="line"/>
      <point x="166" y="604" type="line"/>
    </contour>
  </outline>
</glyph>
<glyph name="Y_alt" format="1">
  <advance width="406"/>
  <unicode hex="9997"/>
  <outline>
    <contour>
      <point x="358" y="635" type="line" name="hr00"/>
      <point x="201" y="368" type="line"/>
      <point x="45" y="635" type="line"/>
      <point x="-12" y="635" type="line"/>
      <point x="176" y="308" type="line"/>
      <point x="176" y="0" type="line"/>
      <point x="227" y="0" type="line"/>
      <point x="227" y="310" type="line"/>
      <point x="416" y="635" type="line"/>
    </contour>
  </outline>
</glyph>
<glyph name="fi" format="1">
  <advance width="297"/>
  <unicode hex="FB01"/>
  <outline>
    <contour>
      <point x="19" y="509" type="curve" name="hr00"/>
      <point x="19" y="0" type="line"/>
      <point x="70" y="0" type="line"/>
      <point x="70" y="405" type="line"/>
      <point x="153" y="405" type="line"/>
      <point x="174" y="453" type="line"/>
      <point x="70" y="453" type="line"/>
      <point x="70" y="511" type="line" smooth="yes"/>
      <point x="70" y="561"/>
      <point x="102" y="593"/>
      <point x="152" y="593" type="curve" smooth="yes"/>
      <point x="172" y="593"/>
      <point x="197" y="586"/>
      <point x="228" y="565" type="curve"/>
      <point x="260" y="598" type="line"/>
      <point x="229" y="628"/>
      <point x="192" y="643"/>
      <point x="151" y="643" type="curve" smooth="yes"/>
      <point x="116" y="643"/>
      <point x="85" y="633"/>
      <point x="59" y="608" type="curve"/>
      <point x="32" y="584"/>
      <point x="19" y="549"/>
    </contour>
    <contour>
      <point x="227" y="453" type="line"/>
      <point x="227" y="0" type="line"/>
      <point x="279" y="0" type="line"/>
      <point x="279" y="453" type="line"/>
    </contour>
  </outline>
</glyph>
